<svg width="123" height="20" viewBox="0 0 123 20" fill="none" xmlns="http://www.w3.org/2000/svg">
<path d="M111 11H119V9H111V11ZM111 14H119V12H111V14ZM111 17H116V15H111V17ZM109 20C108.45 20 107.979 19.8042 107.588 19.4125C107.196 19.0208 107 18.55 107 18V2C107 1.45 107.196 0.979167 107.588 0.5875C107.979 0.195833 108.45 0 109 0H117L123 6V18C123 18.55 122.804 19.0208 122.413 19.4125C122.021 19.8042 121.55 20 121 20H109ZM116 7V2H109V18H121V7H116Z" fill="white"/>
<path d="M1.806 12.522C2.02067 12.8767 2.31 13.1473 2.674 13.334C3.038 13.5113 3.44867 13.6 3.906 13.6C4.382 13.6 4.76 13.5067 5.04 13.32C5.32933 13.1333 5.474 12.886 5.474 12.578C5.474 12.382 5.44133 12.2093 5.376 12.06C5.31067 11.9107 5.19867 11.7707 5.04 11.64C4.88133 11.5093 4.662 11.3833 4.382 11.262C4.102 11.1313 3.74733 10.9913 3.318 10.842C2.91667 10.702 2.55267 10.5527 2.226 10.394C1.90867 10.2353 1.63333 10.0487 1.4 9.834C1.176 9.61933 1.00333 9.372 0.882 9.092C0.760667 8.80267 0.7 8.462 0.7 8.07C0.7 7.68733 0.765333 7.33733 0.896 7.02C1.036 6.70267 1.24133 6.42733 1.512 6.194C1.792 5.96067 2.13733 5.78333 2.548 5.662C2.95867 5.53133 3.43933 5.466 3.99 5.466C4.44733 5.466 4.84867 5.51267 5.194 5.606C5.54867 5.69 5.852 5.80667 6.104 5.956C6.36533 6.10533 6.58933 6.278 6.776 6.474C6.96267 6.67 7.126 6.87533 7.266 7.09L5.908 8.056C5.74 7.748 5.502 7.50067 5.194 7.314C4.886 7.118 4.48 7.02 3.976 7.02C3.5 7.02 3.136 7.104 2.884 7.272C2.64133 7.44 2.52 7.65933 2.52 7.93C2.52 8.25667 2.674 8.52733 2.982 8.742C3.29933 8.94733 3.78 9.16667 4.424 9.4C4.9 9.568 5.31533 9.74533 5.67 9.932C6.034 10.1187 6.33733 10.3333 6.58 10.576C6.82267 10.8093 7.00467 11.08 7.126 11.388C7.25667 11.696 7.322 12.06 7.322 12.48C7.322 12.9373 7.224 13.3387 7.028 13.684C6.84133 14.02 6.58933 14.3 6.272 14.524C5.964 14.748 5.60467 14.916 5.194 15.028C4.78333 15.14 4.36333 15.196 3.934 15.196C2.23533 15.196 1.04533 14.622 0.364 13.474L1.806 12.522ZM10.1033 12.06C10.1313 12.34 10.192 12.5827 10.2853 12.788C10.3786 12.9933 10.4953 13.1613 10.6353 13.292C10.7753 13.4227 10.9293 13.5207 11.0973 13.586C11.2746 13.642 11.4566 13.67 11.6433 13.67C11.97 13.67 12.264 13.614 12.5253 13.502C12.7866 13.3807 13.0573 13.124 13.3373 12.732L14.6953 13.558C14.3033 14.146 13.8553 14.5613 13.3513 14.804C12.8566 15.0373 12.2686 15.154 11.5873 15.154C11.1393 15.154 10.7146 15.084 10.3133 14.944C9.91196 14.804 9.5573 14.5893 9.2493 14.3C8.95063 14.0013 8.71263 13.6327 8.5353 13.194C8.35796 12.7553 8.2693 12.2327 8.2693 11.626C8.2693 11.0567 8.3533 10.5527 8.5213 10.114C8.69863 9.67533 8.93663 9.30667 9.2353 9.008C9.53396 8.70933 9.8793 8.48067 10.2713 8.322C10.6726 8.16333 11.0973 8.084 11.5453 8.084C12.488 8.084 13.244 8.41533 13.8133 9.078C14.392 9.73133 14.6906 10.7253 14.7093 12.06H10.1033ZM12.8473 10.814C12.8286 10.59 12.7773 10.394 12.6933 10.226C12.6186 10.058 12.5206 9.918 12.3993 9.806C12.278 9.694 12.1426 9.61 11.9933 9.554C11.844 9.498 11.6946 9.47 11.5453 9.47C11.228 9.47 10.9293 9.59133 10.6493 9.834C10.3693 10.0673 10.2013 10.394 10.1453 10.814H12.8473ZM21.7988 13.376C21.5094 13.992 21.1174 14.4447 20.6228 14.734C20.1374 15.014 19.5681 15.154 18.9148 15.154C18.4854 15.154 18.0701 15.0793 17.6688 14.93C17.2768 14.7807 16.9268 14.5613 16.6188 14.272C16.3201 13.9733 16.0774 13.6093 15.8908 13.18C15.7134 12.7413 15.6248 12.2327 15.6248 11.654C15.6248 11.0567 15.7134 10.534 15.8908 10.086C16.0681 9.638 16.3014 9.26467 16.5908 8.966C16.8894 8.66733 17.2301 8.448 17.6128 8.308C17.9954 8.15867 18.3921 8.084 18.8028 8.084C19.2134 8.084 19.5774 8.14467 19.8948 8.266C20.2214 8.378 20.5014 8.52733 20.7348 8.714C20.9774 8.90067 21.1734 9.11067 21.3228 9.344C21.4814 9.57733 21.6028 9.81067 21.6868 10.044L20.2448 10.758C20.0861 10.31 19.8854 9.99733 19.6428 9.82C19.4094 9.63333 19.1434 9.54 18.8448 9.54C18.6581 9.54 18.4808 9.582 18.3128 9.666C18.1448 9.75 17.9908 9.876 17.8508 10.044C17.7201 10.212 17.6128 10.4267 17.5288 10.688C17.4541 10.9493 17.4168 11.262 17.4168 11.626C17.4168 12.27 17.5568 12.7693 17.8368 13.124C18.1261 13.4787 18.4994 13.656 18.9568 13.656C19.3114 13.656 19.6008 13.5673 19.8248 13.39C20.0488 13.2127 20.2494 12.9607 20.4268 12.634L21.7988 13.376ZM27.473 15L27.403 14.468C27.0764 14.7293 26.7404 14.9067 26.395 15C26.0497 15.0933 25.709 15.14 25.373 15.14C24.9344 15.14 24.5517 15.0747 24.225 14.944C23.9077 14.804 23.6417 14.608 23.427 14.356C23.2217 14.104 23.0677 13.8053 22.965 13.46C22.8717 13.1053 22.825 12.7087 22.825 12.27V8.434L24.659 8.154V12.088C24.659 12.34 24.673 12.564 24.701 12.76C24.7384 12.956 24.799 13.124 24.883 13.264C24.967 13.404 25.0837 13.5113 25.233 13.586C25.3917 13.6513 25.5924 13.684 25.835 13.684C26.1897 13.684 26.4884 13.614 26.731 13.474C26.9737 13.3247 27.1697 13.1893 27.319 13.068V8.252H29.153V15H27.473ZM30.9745 15V8.42L32.6265 8.168L32.7245 8.84C32.9765 8.56933 33.2285 8.38267 33.4805 8.28C33.7418 8.168 34.0125 8.112 34.2925 8.112C34.4511 8.112 34.6191 8.13067 34.7965 8.168C34.9738 8.20533 35.1558 8.25667 35.3425 8.322L35.0205 9.904C34.8338 9.82933 34.6565 9.77333 34.4885 9.736C34.3298 9.68933 34.1711 9.666 34.0125 9.666C33.7511 9.666 33.5131 9.72667 33.2985 9.848C33.0931 9.96933 32.9298 10.1093 32.8085 10.268V15H30.9745ZM37.0798 7.482C36.7158 7.482 36.4404 7.37933 36.2538 7.174C36.0764 6.96867 35.9878 6.74 35.9878 6.488C35.9878 6.24533 36.0764 6.02133 36.2538 5.816C36.4404 5.61067 36.7158 5.508 37.0798 5.508C37.4438 5.508 37.7144 5.61067 37.8918 5.816C38.0784 6.02133 38.1718 6.24533 38.1718 6.488C38.1718 6.74 38.0784 6.96867 37.8918 7.174C37.7144 7.37933 37.4438 7.482 37.0798 7.482ZM36.1698 15V8.434L37.9898 8.154V15H36.1698ZM41.9205 9.652V13.096C41.9205 13.3107 41.9672 13.46 42.0605 13.544C42.1632 13.6187 42.2612 13.656 42.3545 13.656C42.5412 13.656 42.7232 13.6093 42.9005 13.516C43.0778 13.4227 43.2318 13.3247 43.3625 13.222L44.0205 14.468C43.7125 14.6733 43.3905 14.8413 43.0545 14.972C42.7185 15.0933 42.3545 15.154 41.9625 15.154C41.7292 15.154 41.5005 15.1213 41.2765 15.056C41.0525 14.9907 40.8518 14.888 40.6745 14.748C40.5065 14.608 40.3665 14.426 40.2545 14.202C40.1518 13.9687 40.1005 13.6887 40.1005 13.362V9.652H39.1065V8.252H40.1005V6.684L41.9205 6.404V8.252H43.6705L43.4465 9.652H41.9205ZM44.9962 16.134C45.1736 16.218 45.3462 16.2787 45.5142 16.316C45.6916 16.3533 45.8409 16.372 45.9622 16.372C46.0742 16.372 46.1862 16.3393 46.2982 16.274C46.4102 16.2087 46.5129 16.078 46.6062 15.882L47.1242 14.72L44.3242 8.252H46.2702L48.0342 12.858L49.7142 8.252H51.5622L48.0622 16.596C47.8662 17.072 47.5909 17.394 47.2362 17.562C46.8909 17.73 46.5222 17.814 46.1302 17.814C45.8876 17.814 45.6169 17.7813 45.3182 17.716C45.0289 17.66 44.7302 17.5667 44.4222 17.436L44.9962 16.134ZM57.2854 11.64V15H55.4374V5.662H58.5734C59.2454 5.662 59.8147 5.73667 60.2814 5.886C60.748 6.03533 61.126 6.24067 61.4154 6.502C61.7047 6.754 61.9147 7.05733 62.0454 7.412C62.176 7.75733 62.2414 8.13067 62.2414 8.532C62.2414 8.924 62.1807 9.30667 62.0594 9.68C61.9474 10.0533 61.7514 10.3847 61.4714 10.674C61.1914 10.9633 60.8227 11.1967 60.3654 11.374C59.908 11.5513 59.3434 11.64 58.6714 11.64H57.2854ZM57.2854 7.272V10.03H58.4894C59.068 10.03 59.5254 9.92733 59.8614 9.722C60.2067 9.51667 60.3794 9.15733 60.3794 8.644C60.3794 8.20533 60.2394 7.86933 59.9594 7.636C59.6794 7.39333 59.1894 7.272 58.4894 7.272H57.2854ZM63.5682 15V5.746L65.4022 5.466V15H63.5682ZM68.6326 12.06C68.6606 12.34 68.7213 12.5827 68.8146 12.788C68.9079 12.9933 69.0246 13.1613 69.1646 13.292C69.3046 13.4227 69.4586 13.5207 69.6266 13.586C69.8039 13.642 69.9859 13.67 70.1726 13.67C70.4993 13.67 70.7933 13.614 71.0546 13.502C71.3159 13.3807 71.5866 13.124 71.8666 12.732L73.2246 13.558C72.8326 14.146 72.3846 14.5613 71.8806 14.804C71.3859 15.0373 70.7979 15.154 70.1166 15.154C69.6686 15.154 69.2439 15.084 68.8426 14.944C68.4413 14.804 68.0866 14.5893 67.7786 14.3C67.4799 14.0013 67.2419 13.6327 67.0646 13.194C66.8873 12.7553 66.7986 12.2327 66.7986 11.626C66.7986 11.0567 66.8826 10.5527 67.0506 10.114C67.2279 9.67533 67.4659 9.30667 67.7646 9.008C68.0633 8.70933 68.4086 8.48067 68.8006 8.322C69.2019 8.16333 69.6266 8.084 70.0746 8.084C71.0173 8.084 71.7733 8.41533 72.3426 9.078C72.9213 9.73133 73.2199 10.7253 73.2386 12.06H68.6326ZM71.3766 10.814C71.3579 10.59 71.3066 10.394 71.2226 10.226C71.1479 10.058 71.0499 9.918 70.9286 9.806C70.8073 9.694 70.6719 9.61 70.5226 9.554C70.3733 9.498 70.2239 9.47 70.0746 9.47C69.7573 9.47 69.4586 9.59133 69.1786 9.834C68.8986 10.0673 68.7306 10.394 68.6746 10.814H71.3766ZM78.8861 15L78.8021 14.482C78.6341 14.6593 78.4147 14.818 78.1441 14.958C77.8734 15.0887 77.5514 15.154 77.1781 15.154C76.6834 15.154 76.2494 15.0607 75.8761 14.874C75.5027 14.6873 75.1854 14.4353 74.9241 14.118C74.6721 13.7913 74.4807 13.4133 74.3501 12.984C74.2194 12.5547 74.1541 12.0927 74.1541 11.598C74.1541 11.1593 74.2241 10.73 74.3641 10.31C74.5041 9.89 74.7141 9.51667 74.9941 9.19C75.2741 8.854 75.6241 8.588 76.0441 8.392C76.4641 8.18667 76.9587 8.084 77.5281 8.084C77.8921 8.084 78.2934 8.14933 78.7321 8.28V5.746L80.5521 5.466V15H78.8861ZM78.7321 9.75C78.3681 9.61933 78.0414 9.554 77.7521 9.554C77.4441 9.554 77.1734 9.61 76.9401 9.722C76.7161 9.834 76.5294 9.988 76.3801 10.184C76.2307 10.3707 76.1187 10.5853 76.0441 10.828C75.9694 11.0613 75.9321 11.304 75.9321 11.556C75.9321 11.8453 75.9601 12.1207 76.0161 12.382C76.0814 12.634 76.1794 12.858 76.3101 13.054C76.4407 13.2407 76.6041 13.39 76.8001 13.502C77.0054 13.614 77.2527 13.67 77.5421 13.67C77.7661 13.67 77.9947 13.614 78.2281 13.502C78.4614 13.3807 78.6294 13.2407 78.7321 13.082V9.75ZM83.403 15.714C83.6644 15.9567 83.9304 16.1293 84.201 16.232C84.4717 16.344 84.7937 16.4 85.167 16.4C85.5777 16.4 85.895 16.2973 86.119 16.092C86.3524 15.896 86.469 15.5973 86.469 15.196V14.86C86.3384 14.9067 86.1797 14.944 85.993 14.972C85.8064 14.9907 85.629 15 85.461 15C84.9384 15 84.4624 14.916 84.033 14.748C83.6037 14.58 83.235 14.3467 82.927 14.048C82.619 13.74 82.3764 13.376 82.199 12.956C82.031 12.5267 81.947 12.0553 81.947 11.542C81.947 11.094 82.0217 10.66 82.171 10.24C82.3204 9.82 82.549 9.45133 82.857 9.134C83.1744 8.81667 83.571 8.56467 84.047 8.378C84.523 8.182 85.0924 8.084 85.755 8.084C85.9324 8.084 86.133 8.09333 86.357 8.112C86.5904 8.12133 86.8237 8.14 87.057 8.168C87.2904 8.18667 87.5097 8.21 87.715 8.238C87.9204 8.25667 88.1164 8.28 88.303 8.308V14.72C88.303 15.812 88.0464 16.6007 87.533 17.086C87.029 17.5807 86.2404 17.828 85.167 17.828C83.8697 17.828 82.885 17.436 82.213 16.652L83.403 15.714ZM86.469 9.596C86.3384 9.57733 86.2217 9.56333 86.119 9.554C86.0257 9.54467 85.909 9.54 85.769 9.54C85.1157 9.54 84.6117 9.722 84.257 10.086C83.9024 10.4407 83.725 10.926 83.725 11.542C83.725 12.1487 83.9024 12.6293 84.257 12.984C84.6117 13.3293 85.097 13.502 85.713 13.502C85.881 13.502 86.0304 13.488 86.161 13.46C86.2917 13.432 86.3944 13.3947 86.469 13.348V9.596ZM91.533 12.06C91.561 12.34 91.6217 12.5827 91.715 12.788C91.8083 12.9933 91.925 13.1613 92.065 13.292C92.205 13.4227 92.359 13.5207 92.527 13.586C92.7043 13.642 92.8863 13.67 93.073 13.67C93.3997 13.67 93.6937 13.614 93.955 13.502C94.2163 13.3807 94.487 13.124 94.767 12.732L96.125 13.558C95.733 14.146 95.285 14.5613 94.781 14.804C94.2863 15.0373 93.6983 15.154 93.017 15.154C92.569 15.154 92.1443 15.084 91.743 14.944C91.3417 14.804 90.987 14.5893 90.679 14.3C90.3803 14.0013 90.1423 13.6327 89.965 13.194C89.7877 12.7553 89.699 12.2327 89.699 11.626C89.699 11.0567 89.783 10.5527 89.951 10.114C90.1283 9.67533 90.3663 9.30667 90.665 9.008C90.9637 8.70933 91.309 8.48067 91.701 8.322C92.1023 8.16333 92.527 8.084 92.975 8.084C93.9177 8.084 94.6737 8.41533 95.243 9.078C95.8217 9.73133 96.1203 10.7253 96.139 12.06H91.533ZM94.277 10.814C94.2583 10.59 94.207 10.394 94.123 10.226C94.0483 10.058 93.9503 9.918 93.829 9.806C93.7077 9.694 93.5723 9.61 93.423 9.554C93.2737 9.498 93.1243 9.47 92.975 9.47C92.6577 9.47 92.359 9.59133 92.079 9.834C91.799 10.0673 91.631 10.394 91.575 10.814H94.277Z" fill="white"/>
</svg>
