<svg width="1392" height="39" viewBox="0 0 1392 39" fill="none" xmlns="http://www.w3.org/2000/svg">
<rect width="1392" height="39" fill="#EFF6FF"/>
<mask id="mask0_124_27115" style="mask-type:luminance" maskUnits="userSpaceOnUse" x="32" y="7" width="24" height="24">
<path d="M32 7H56V31H32V7Z" fill="white"/>
</mask>
<g mask="url(#mask0_124_27115)">
<path d="M34.2378 16.0347C34.2378 14.9209 35.4754 12.8169 37.0844 12.1981C38.6933 11.5793 41.1686 11.5793 44.5102 11.5793C48.0993 11.5793 51.6885 12.1981 51.6885 12.1981L48.8419 9.35151L50.0795 7L56.7628 13.807L49.9558 20.614L48.7181 18.2625L51.5647 15.4159C51.5647 15.4159 47.9756 14.7971 44.2626 14.7971C41.0448 14.7971 38.5695 14.7971 36.9606 15.4159C35.3517 16.0347 34.2378 19.9952 34.2378 19.9952V16.0347Z" fill="#5856D6"/>
<path d="M54.5347 22.966C54.5347 24.0798 53.2971 26.1838 51.6882 26.8026C50.0793 27.4215 47.604 27.4215 44.2624 27.4215C40.6732 27.4215 37.0841 26.8026 37.0841 26.8026L39.9306 29.6492L38.693 32.0007L32.0098 25.1937L38.8168 18.3867L40.0544 20.7382L37.2078 23.5848C37.2078 23.5848 40.797 24.2036 44.5099 24.2036C47.7277 24.2036 50.203 24.2036 51.8119 23.5848C53.4209 22.966 54.5347 19.0055 54.5347 19.0055V22.966Z" fill="#5856D6"/>
</g>
<mask id="path-5-outside-1_124_27115" maskUnits="userSpaceOnUse" x="65" y="12.5" width="128" height="13" fill="black">
<rect fill="white" x="65" y="12.5" width="128" height="13"/>
<path d="M69.264 24.5V15.764H66.08V13.828H74.608V15.764H71.44V24.5H69.264ZM74.9306 24.5V16.98L76.8186 16.692L76.9306 17.46C77.2186 17.1507 77.5066 16.9373 77.7946 16.82C78.0933 16.692 78.4026 16.628 78.7226 16.628C78.904 16.628 79.096 16.6493 79.2986 16.692C79.5013 16.7347 79.7093 16.7933 79.9226 16.868L79.5546 18.676C79.3413 18.5907 79.1386 18.5267 78.9466 18.484C78.7653 18.4307 78.584 18.404 78.4026 18.404C78.104 18.404 77.832 18.4733 77.5866 18.612C77.352 18.7507 77.1653 18.9107 77.0266 19.092V24.5H74.9306ZM84.9839 24.5L84.8879 23.924C84.6639 24.1587 84.3759 24.3453 84.0239 24.484C83.6825 24.612 83.3039 24.676 82.8879 24.676C82.5465 24.676 82.2105 24.6173 81.8799 24.5C81.5599 24.3933 81.2772 24.2387 81.0319 24.036C80.7865 23.8227 80.5892 23.5667 80.4399 23.268C80.2905 22.9587 80.2159 22.612 80.2159 22.228C80.2159 21.6627 80.3652 21.2093 80.6639 20.868C80.9732 20.516 81.3572 20.244 81.8159 20.052C82.2745 19.86 82.7705 19.7267 83.3039 19.652C83.8372 19.5773 84.3332 19.524 84.7919 19.492V19.236C84.7919 18.916 84.6959 18.6653 84.5039 18.484C84.3225 18.292 84.0452 18.196 83.6719 18.196C83.3732 18.196 83.1012 18.26 82.8559 18.388C82.6212 18.5053 82.4132 18.6707 82.2319 18.884L80.8079 17.892C81.0105 17.636 81.2399 17.4227 81.4959 17.252C81.7625 17.0813 82.0292 16.948 82.2959 16.852C82.5732 16.756 82.8452 16.692 83.1119 16.66C83.3785 16.6173 83.6239 16.596 83.8479 16.596C84.2959 16.596 84.7065 16.6547 85.0799 16.772C85.4532 16.8787 85.7732 17.0547 86.0399 17.3C86.3172 17.5347 86.5305 17.8387 86.6799 18.212C86.8292 18.5747 86.9039 19.0173 86.9039 19.54V24.5H84.9839ZM84.8079 20.9C84.5092 20.9213 84.2052 20.948 83.8959 20.98C83.5972 21.012 83.3252 21.0707 83.0799 21.156C82.8345 21.2413 82.6319 21.3693 82.4719 21.54C82.3225 21.7 82.2479 21.9133 82.2479 22.18C82.2479 22.436 82.3439 22.644 82.5359 22.804C82.7279 22.9533 83.0105 23.028 83.3839 23.028C83.6505 23.028 83.9065 22.9747 84.1519 22.868C84.4079 22.7613 84.6265 22.628 84.8079 22.468V20.9ZM88.9306 24.5V16.98L90.8186 16.692L90.9306 17.396C91.2506 17.14 91.6186 16.9427 92.0346 16.804C92.4506 16.6653 92.8666 16.596 93.2826 16.596C94.3066 16.596 95.048 16.9 95.5066 17.508C95.9653 18.1053 96.1946 18.916 96.1946 19.94V24.5H94.0986V20.1C94.0986 19.8013 94.0826 19.54 94.0506 19.316C94.0186 19.0813 93.9546 18.8893 93.8586 18.74C93.7626 18.58 93.624 18.4627 93.4426 18.388C93.2613 18.3027 93.0213 18.26 92.7226 18.26C92.4133 18.26 92.104 18.3347 91.7946 18.484C91.496 18.6333 91.24 18.8147 91.0266 19.028V24.5H88.9306ZM99.2035 21.908C99.3848 22.2493 99.6408 22.5373 99.9715 22.772C100.302 22.996 100.74 23.108 101.284 23.108C102.126 23.108 102.548 22.8573 102.548 22.356C102.548 22.2493 102.521 22.148 102.468 22.052C102.425 21.956 102.334 21.8653 102.196 21.78C102.057 21.6947 101.87 21.6147 101.636 21.54C101.401 21.4653 101.102 21.3907 100.74 21.316C100.334 21.2307 99.9608 21.1293 99.6195 21.012C99.2888 20.884 99.0062 20.7293 98.7715 20.548C98.5368 20.356 98.3555 20.132 98.2275 19.876C98.0995 19.6093 98.0355 19.2893 98.0355 18.916C98.0355 18.5747 98.1102 18.2653 98.2595 17.988C98.4088 17.7 98.6168 17.4547 98.8835 17.252C99.1608 17.0387 99.4968 16.8787 99.8915 16.772C100.286 16.6547 100.724 16.596 101.204 16.596C102.078 16.596 102.772 16.74 103.284 17.028C103.796 17.3053 104.19 17.6467 104.468 18.052L102.996 19.06C102.804 18.804 102.558 18.5907 102.26 18.42C101.961 18.2493 101.609 18.164 101.204 18.164C100.766 18.164 100.457 18.2333 100.276 18.372C100.105 18.5 100.02 18.6707 100.02 18.884C100.02 19.1293 100.126 19.3053 100.34 19.412C100.553 19.5187 100.948 19.6307 101.524 19.748C101.993 19.844 102.409 19.9613 102.772 20.1C103.145 20.228 103.46 20.388 103.716 20.58C103.972 20.772 104.164 21.0067 104.292 21.284C104.43 21.5507 104.5 21.876 104.5 22.26C104.5 22.676 104.414 23.0387 104.244 23.348C104.073 23.6467 103.838 23.8973 103.54 24.1C103.241 24.292 102.889 24.436 102.484 24.532C102.078 24.628 101.646 24.676 101.188 24.676C100.27 24.676 99.5235 24.5053 98.9475 24.164C98.3822 23.812 97.9502 23.3747 97.6515 22.852L99.2035 21.908ZM106.437 24.5V18.388H105.365V16.788H106.437V16.516C106.437 16.004 106.507 15.5667 106.645 15.204C106.784 14.8413 106.971 14.5427 107.205 14.308C107.451 14.0627 107.733 13.8867 108.053 13.78C108.384 13.6627 108.741 13.604 109.125 13.604C109.637 13.604 110.08 13.6467 110.453 13.732C110.837 13.8067 111.184 13.9187 111.493 14.068L110.885 15.668C110.437 15.4547 109.963 15.348 109.461 15.348C109.195 15.348 108.971 15.4333 108.789 15.604C108.608 15.7747 108.517 16.084 108.517 16.532V16.788H110.389L110.133 18.388H108.533V24.5H106.437ZM112.89 21.14C112.922 21.46 112.992 21.7373 113.098 21.972C113.205 22.2067 113.338 22.3987 113.498 22.548C113.658 22.6973 113.834 22.8093 114.026 22.884C114.229 22.948 114.437 22.98 114.65 22.98C115.024 22.98 115.36 22.916 115.658 22.788C115.957 22.6493 116.266 22.356 116.586 21.908L118.138 22.852C117.69 23.524 117.178 23.9987 116.602 24.276C116.037 24.5427 115.365 24.676 114.586 24.676C114.074 24.676 113.589 24.596 113.13 24.436C112.672 24.276 112.266 24.0307 111.914 23.7C111.573 23.3587 111.301 22.9373 111.098 22.436C110.896 21.9347 110.794 21.3373 110.794 20.644C110.794 19.9933 110.89 19.4173 111.082 18.916C111.285 18.4147 111.557 17.9933 111.898 17.652C112.24 17.3107 112.634 17.0493 113.082 16.868C113.541 16.6867 114.026 16.596 114.538 16.596C115.616 16.596 116.48 16.9747 117.13 17.732C117.792 18.4787 118.133 19.6147 118.154 21.14H112.89ZM116.026 19.716C116.005 19.46 115.946 19.236 115.85 19.044C115.765 18.852 115.653 18.692 115.514 18.564C115.376 18.436 115.221 18.34 115.05 18.276C114.88 18.212 114.709 18.18 114.538 18.18C114.176 18.18 113.834 18.3187 113.514 18.596C113.194 18.8627 113.002 19.236 112.938 19.716H116.026ZM119.681 24.5V16.98L121.569 16.692L121.681 17.46C121.969 17.1507 122.257 16.9373 122.545 16.82C122.843 16.692 123.153 16.628 123.473 16.628C123.654 16.628 123.846 16.6493 124.049 16.692C124.251 16.7347 124.459 16.7933 124.673 16.868L124.305 18.676C124.091 18.5907 123.889 18.5267 123.697 18.484C123.515 18.4307 123.334 18.404 123.153 18.404C122.854 18.404 122.582 18.4733 122.337 18.612C122.102 18.7507 121.915 18.9107 121.777 19.092V24.5H119.681ZM130.213 24.5L127.781 13.828H129.941L131.253 20.164L133.333 13.828H134.661L136.741 20.164L138.085 13.828H140.229L137.781 24.5H136.421L133.989 17.348L131.573 24.5H130.213ZM144.276 24.676C143.625 24.676 143.055 24.5587 142.564 24.324C142.084 24.0893 141.679 23.78 141.348 23.396C141.028 23.012 140.788 22.58 140.628 22.1C140.468 21.6093 140.388 21.1133 140.388 20.612C140.388 20.1107 140.468 19.62 140.628 19.14C140.788 18.66 141.028 18.2333 141.348 17.86C141.679 17.476 142.084 17.172 142.564 16.948C143.055 16.7133 143.625 16.596 144.276 16.596C144.927 16.596 145.492 16.7133 145.972 16.948C146.463 17.172 146.868 17.476 147.188 17.86C147.519 18.2333 147.764 18.66 147.924 19.14C148.084 19.62 148.164 20.1107 148.164 20.612C148.164 21.1133 148.084 21.6093 147.924 22.1C147.764 22.58 147.519 23.012 147.188 23.396C146.868 23.78 146.463 24.0893 145.972 24.324C145.492 24.5587 144.927 24.676 144.276 24.676ZM142.436 20.612C142.436 20.9427 142.473 21.252 142.548 21.54C142.633 21.8173 142.751 22.0627 142.9 22.276C143.06 22.4893 143.252 22.66 143.476 22.788C143.711 22.9053 143.977 22.964 144.276 22.964C144.575 22.964 144.836 22.9053 145.06 22.788C145.295 22.66 145.487 22.4893 145.636 22.276C145.796 22.0627 145.913 21.8173 145.988 21.54C146.073 21.252 146.116 20.9427 146.116 20.612C146.116 20.292 146.073 19.988 145.988 19.7C145.913 19.412 145.796 19.1667 145.636 18.964C145.487 18.7507 145.295 18.5853 145.06 18.468C144.836 18.34 144.575 18.276 144.276 18.276C143.977 18.276 143.711 18.34 143.476 18.468C143.252 18.5853 143.06 18.7507 142.9 18.964C142.751 19.1667 142.633 19.412 142.548 19.7C142.473 19.988 142.436 20.292 142.436 20.612ZM149.759 24.5V16.98L151.647 16.692L151.759 17.46C152.047 17.1507 152.335 16.9373 152.623 16.82C152.921 16.692 153.231 16.628 153.551 16.628C153.732 16.628 153.924 16.6493 154.127 16.692C154.329 16.7347 154.537 16.7933 154.751 16.868L154.383 18.676C154.169 18.5907 153.967 18.5267 153.775 18.484C153.593 18.4307 153.412 18.404 153.231 18.404C152.932 18.404 152.66 18.4733 152.415 18.612C152.18 18.7507 151.993 18.9107 151.855 19.092V24.5H149.759ZM155.696 24.5V13.924L157.792 13.604V18.964L160.208 16.788H162.72L160.064 19.172L163.104 24.5H160.752L158.544 20.516L157.792 21.22V24.5H155.696ZM164.437 24.5V18.388H163.365V16.788H164.453V16.548C164.453 15.9613 164.576 15.476 164.821 15.092C165.077 14.708 165.397 14.4093 165.781 14.196C166.176 13.9827 166.613 13.8333 167.093 13.748C167.573 13.6627 168.043 13.62 168.501 13.62C168.907 13.62 169.344 13.6413 169.813 13.684C170.283 13.7267 170.715 13.7853 171.109 13.86V24.5H169.029V15.46C168.901 15.4387 168.757 15.428 168.597 15.428C168.437 15.4173 168.299 15.412 168.181 15.412C167.712 15.412 167.317 15.5027 166.997 15.684C166.677 15.8547 166.517 16.1587 166.517 16.596V16.788H168.245L167.989 18.388H166.533V24.5H164.437ZM176.604 24.676C175.954 24.676 175.383 24.5587 174.892 24.324C174.412 24.0893 174.007 23.78 173.676 23.396C173.356 23.012 173.116 22.58 172.956 22.1C172.796 21.6093 172.716 21.1133 172.716 20.612C172.716 20.1107 172.796 19.62 172.956 19.14C173.116 18.66 173.356 18.2333 173.676 17.86C174.007 17.476 174.412 17.172 174.892 16.948C175.383 16.7133 175.954 16.596 176.604 16.596C177.255 16.596 177.82 16.7133 178.3 16.948C178.791 17.172 179.196 17.476 179.516 17.86C179.847 18.2333 180.092 18.66 180.252 19.14C180.412 19.62 180.492 20.1107 180.492 20.612C180.492 21.1133 180.412 21.6093 180.252 22.1C180.092 22.58 179.847 23.012 179.516 23.396C179.196 23.78 178.791 24.0893 178.3 24.324C177.82 24.5587 177.255 24.676 176.604 24.676ZM174.764 20.612C174.764 20.9427 174.802 21.252 174.876 21.54C174.962 21.8173 175.079 22.0627 175.228 22.276C175.388 22.4893 175.58 22.66 175.804 22.788C176.039 22.9053 176.306 22.964 176.604 22.964C176.903 22.964 177.164 22.9053 177.388 22.788C177.623 22.66 177.815 22.4893 177.964 22.276C178.124 22.0627 178.242 21.8173 178.316 21.54C178.402 21.252 178.444 20.9427 178.444 20.612C178.444 20.292 178.402 19.988 178.316 19.7C178.242 19.412 178.124 19.1667 177.964 18.964C177.815 18.7507 177.623 18.5853 177.388 18.468C177.164 18.34 176.903 18.276 176.604 18.276C176.306 18.276 176.039 18.34 175.804 18.468C175.58 18.5853 175.388 18.7507 175.228 18.964C175.079 19.1667 174.962 19.412 174.876 19.7C174.802 19.988 174.764 20.292 174.764 20.612ZM183.486 24.5L180.734 16.788H182.91L184.302 21.428L185.822 16.788H187.102L188.638 21.428L190.03 16.788H192.206L189.454 24.5H187.934L186.462 20.036L185.006 24.5H183.486Z"/>
</mask>
<path d="M69.264 24.5V15.764H66.08V13.828H74.608V15.764H71.44V24.5H69.264ZM74.9306 24.5V16.98L76.8186 16.692L76.9306 17.46C77.2186 17.1507 77.5066 16.9373 77.7946 16.82C78.0933 16.692 78.4026 16.628 78.7226 16.628C78.904 16.628 79.096 16.6493 79.2986 16.692C79.5013 16.7347 79.7093 16.7933 79.9226 16.868L79.5546 18.676C79.3413 18.5907 79.1386 18.5267 78.9466 18.484C78.7653 18.4307 78.584 18.404 78.4026 18.404C78.104 18.404 77.832 18.4733 77.5866 18.612C77.352 18.7507 77.1653 18.9107 77.0266 19.092V24.5H74.9306ZM84.9839 24.5L84.8879 23.924C84.6639 24.1587 84.3759 24.3453 84.0239 24.484C83.6825 24.612 83.3039 24.676 82.8879 24.676C82.5465 24.676 82.2105 24.6173 81.8799 24.5C81.5599 24.3933 81.2772 24.2387 81.0319 24.036C80.7865 23.8227 80.5892 23.5667 80.4399 23.268C80.2905 22.9587 80.2159 22.612 80.2159 22.228C80.2159 21.6627 80.3652 21.2093 80.6639 20.868C80.9732 20.516 81.3572 20.244 81.8159 20.052C82.2745 19.86 82.7705 19.7267 83.3039 19.652C83.8372 19.5773 84.3332 19.524 84.7919 19.492V19.236C84.7919 18.916 84.6959 18.6653 84.5039 18.484C84.3225 18.292 84.0452 18.196 83.6719 18.196C83.3732 18.196 83.1012 18.26 82.8559 18.388C82.6212 18.5053 82.4132 18.6707 82.2319 18.884L80.8079 17.892C81.0105 17.636 81.2399 17.4227 81.4959 17.252C81.7625 17.0813 82.0292 16.948 82.2959 16.852C82.5732 16.756 82.8452 16.692 83.1119 16.66C83.3785 16.6173 83.6239 16.596 83.8479 16.596C84.2959 16.596 84.7065 16.6547 85.0799 16.772C85.4532 16.8787 85.7732 17.0547 86.0399 17.3C86.3172 17.5347 86.5305 17.8387 86.6799 18.212C86.8292 18.5747 86.9039 19.0173 86.9039 19.54V24.5H84.9839ZM84.8079 20.9C84.5092 20.9213 84.2052 20.948 83.8959 20.98C83.5972 21.012 83.3252 21.0707 83.0799 21.156C82.8345 21.2413 82.6319 21.3693 82.4719 21.54C82.3225 21.7 82.2479 21.9133 82.2479 22.18C82.2479 22.436 82.3439 22.644 82.5359 22.804C82.7279 22.9533 83.0105 23.028 83.3839 23.028C83.6505 23.028 83.9065 22.9747 84.1519 22.868C84.4079 22.7613 84.6265 22.628 84.8079 22.468V20.9ZM88.9306 24.5V16.98L90.8186 16.692L90.9306 17.396C91.2506 17.14 91.6186 16.9427 92.0346 16.804C92.4506 16.6653 92.8666 16.596 93.2826 16.596C94.3066 16.596 95.048 16.9 95.5066 17.508C95.9653 18.1053 96.1946 18.916 96.1946 19.94V24.5H94.0986V20.1C94.0986 19.8013 94.0826 19.54 94.0506 19.316C94.0186 19.0813 93.9546 18.8893 93.8586 18.74C93.7626 18.58 93.624 18.4627 93.4426 18.388C93.2613 18.3027 93.0213 18.26 92.7226 18.26C92.4133 18.26 92.104 18.3347 91.7946 18.484C91.496 18.6333 91.24 18.8147 91.0266 19.028V24.5H88.9306ZM99.2035 21.908C99.3848 22.2493 99.6408 22.5373 99.9715 22.772C100.302 22.996 100.74 23.108 101.284 23.108C102.126 23.108 102.548 22.8573 102.548 22.356C102.548 22.2493 102.521 22.148 102.468 22.052C102.425 21.956 102.334 21.8653 102.196 21.78C102.057 21.6947 101.87 21.6147 101.636 21.54C101.401 21.4653 101.102 21.3907 100.74 21.316C100.334 21.2307 99.9608 21.1293 99.6195 21.012C99.2888 20.884 99.0062 20.7293 98.7715 20.548C98.5368 20.356 98.3555 20.132 98.2275 19.876C98.0995 19.6093 98.0355 19.2893 98.0355 18.916C98.0355 18.5747 98.1102 18.2653 98.2595 17.988C98.4088 17.7 98.6168 17.4547 98.8835 17.252C99.1608 17.0387 99.4968 16.8787 99.8915 16.772C100.286 16.6547 100.724 16.596 101.204 16.596C102.078 16.596 102.772 16.74 103.284 17.028C103.796 17.3053 104.19 17.6467 104.468 18.052L102.996 19.06C102.804 18.804 102.558 18.5907 102.26 18.42C101.961 18.2493 101.609 18.164 101.204 18.164C100.766 18.164 100.457 18.2333 100.276 18.372C100.105 18.5 100.02 18.6707 100.02 18.884C100.02 19.1293 100.126 19.3053 100.34 19.412C100.553 19.5187 100.948 19.6307 101.524 19.748C101.993 19.844 102.409 19.9613 102.772 20.1C103.145 20.228 103.46 20.388 103.716 20.58C103.972 20.772 104.164 21.0067 104.292 21.284C104.43 21.5507 104.5 21.876 104.5 22.26C104.5 22.676 104.414 23.0387 104.244 23.348C104.073 23.6467 103.838 23.8973 103.54 24.1C103.241 24.292 102.889 24.436 102.484 24.532C102.078 24.628 101.646 24.676 101.188 24.676C100.27 24.676 99.5235 24.5053 98.9475 24.164C98.3822 23.812 97.9502 23.3747 97.6515 22.852L99.2035 21.908ZM106.437 24.5V18.388H105.365V16.788H106.437V16.516C106.437 16.004 106.507 15.5667 106.645 15.204C106.784 14.8413 106.971 14.5427 107.205 14.308C107.451 14.0627 107.733 13.8867 108.053 13.78C108.384 13.6627 108.741 13.604 109.125 13.604C109.637 13.604 110.08 13.6467 110.453 13.732C110.837 13.8067 111.184 13.9187 111.493 14.068L110.885 15.668C110.437 15.4547 109.963 15.348 109.461 15.348C109.195 15.348 108.971 15.4333 108.789 15.604C108.608 15.7747 108.517 16.084 108.517 16.532V16.788H110.389L110.133 18.388H108.533V24.5H106.437ZM112.89 21.14C112.922 21.46 112.992 21.7373 113.098 21.972C113.205 22.2067 113.338 22.3987 113.498 22.548C113.658 22.6973 113.834 22.8093 114.026 22.884C114.229 22.948 114.437 22.98 114.65 22.98C115.024 22.98 115.36 22.916 115.658 22.788C115.957 22.6493 116.266 22.356 116.586 21.908L118.138 22.852C117.69 23.524 117.178 23.9987 116.602 24.276C116.037 24.5427 115.365 24.676 114.586 24.676C114.074 24.676 113.589 24.596 113.13 24.436C112.672 24.276 112.266 24.0307 111.914 23.7C111.573 23.3587 111.301 22.9373 111.098 22.436C110.896 21.9347 110.794 21.3373 110.794 20.644C110.794 19.9933 110.89 19.4173 111.082 18.916C111.285 18.4147 111.557 17.9933 111.898 17.652C112.24 17.3107 112.634 17.0493 113.082 16.868C113.541 16.6867 114.026 16.596 114.538 16.596C115.616 16.596 116.48 16.9747 117.13 17.732C117.792 18.4787 118.133 19.6147 118.154 21.14H112.89ZM116.026 19.716C116.005 19.46 115.946 19.236 115.85 19.044C115.765 18.852 115.653 18.692 115.514 18.564C115.376 18.436 115.221 18.34 115.05 18.276C114.88 18.212 114.709 18.18 114.538 18.18C114.176 18.18 113.834 18.3187 113.514 18.596C113.194 18.8627 113.002 19.236 112.938 19.716H116.026ZM119.681 24.5V16.98L121.569 16.692L121.681 17.46C121.969 17.1507 122.257 16.9373 122.545 16.82C122.843 16.692 123.153 16.628 123.473 16.628C123.654 16.628 123.846 16.6493 124.049 16.692C124.251 16.7347 124.459 16.7933 124.673 16.868L124.305 18.676C124.091 18.5907 123.889 18.5267 123.697 18.484C123.515 18.4307 123.334 18.404 123.153 18.404C122.854 18.404 122.582 18.4733 122.337 18.612C122.102 18.7507 121.915 18.9107 121.777 19.092V24.5H119.681ZM130.213 24.5L127.781 13.828H129.941L131.253 20.164L133.333 13.828H134.661L136.741 20.164L138.085 13.828H140.229L137.781 24.5H136.421L133.989 17.348L131.573 24.5H130.213ZM144.276 24.676C143.625 24.676 143.055 24.5587 142.564 24.324C142.084 24.0893 141.679 23.78 141.348 23.396C141.028 23.012 140.788 22.58 140.628 22.1C140.468 21.6093 140.388 21.1133 140.388 20.612C140.388 20.1107 140.468 19.62 140.628 19.14C140.788 18.66 141.028 18.2333 141.348 17.86C141.679 17.476 142.084 17.172 142.564 16.948C143.055 16.7133 143.625 16.596 144.276 16.596C144.927 16.596 145.492 16.7133 145.972 16.948C146.463 17.172 146.868 17.476 147.188 17.86C147.519 18.2333 147.764 18.66 147.924 19.14C148.084 19.62 148.164 20.1107 148.164 20.612C148.164 21.1133 148.084 21.6093 147.924 22.1C147.764 22.58 147.519 23.012 147.188 23.396C146.868 23.78 146.463 24.0893 145.972 24.324C145.492 24.5587 144.927 24.676 144.276 24.676ZM142.436 20.612C142.436 20.9427 142.473 21.252 142.548 21.54C142.633 21.8173 142.751 22.0627 142.9 22.276C143.06 22.4893 143.252 22.66 143.476 22.788C143.711 22.9053 143.977 22.964 144.276 22.964C144.575 22.964 144.836 22.9053 145.06 22.788C145.295 22.66 145.487 22.4893 145.636 22.276C145.796 22.0627 145.913 21.8173 145.988 21.54C146.073 21.252 146.116 20.9427 146.116 20.612C146.116 20.292 146.073 19.988 145.988 19.7C145.913 19.412 145.796 19.1667 145.636 18.964C145.487 18.7507 145.295 18.5853 145.06 18.468C144.836 18.34 144.575 18.276 144.276 18.276C143.977 18.276 143.711 18.34 143.476 18.468C143.252 18.5853 143.06 18.7507 142.9 18.964C142.751 19.1667 142.633 19.412 142.548 19.7C142.473 19.988 142.436 20.292 142.436 20.612ZM149.759 24.5V16.98L151.647 16.692L151.759 17.46C152.047 17.1507 152.335 16.9373 152.623 16.82C152.921 16.692 153.231 16.628 153.551 16.628C153.732 16.628 153.924 16.6493 154.127 16.692C154.329 16.7347 154.537 16.7933 154.751 16.868L154.383 18.676C154.169 18.5907 153.967 18.5267 153.775 18.484C153.593 18.4307 153.412 18.404 153.231 18.404C152.932 18.404 152.66 18.4733 152.415 18.612C152.18 18.7507 151.993 18.9107 151.855 19.092V24.5H149.759ZM155.696 24.5V13.924L157.792 13.604V18.964L160.208 16.788H162.72L160.064 19.172L163.104 24.5H160.752L158.544 20.516L157.792 21.22V24.5H155.696ZM164.437 24.5V18.388H163.365V16.788H164.453V16.548C164.453 15.9613 164.576 15.476 164.821 15.092C165.077 14.708 165.397 14.4093 165.781 14.196C166.176 13.9827 166.613 13.8333 167.093 13.748C167.573 13.6627 168.043 13.62 168.501 13.62C168.907 13.62 169.344 13.6413 169.813 13.684C170.283 13.7267 170.715 13.7853 171.109 13.86V24.5H169.029V15.46C168.901 15.4387 168.757 15.428 168.597 15.428C168.437 15.4173 168.299 15.412 168.181 15.412C167.712 15.412 167.317 15.5027 166.997 15.684C166.677 15.8547 166.517 16.1587 166.517 16.596V16.788H168.245L167.989 18.388H166.533V24.5H164.437ZM176.604 24.676C175.954 24.676 175.383 24.5587 174.892 24.324C174.412 24.0893 174.007 23.78 173.676 23.396C173.356 23.012 173.116 22.58 172.956 22.1C172.796 21.6093 172.716 21.1133 172.716 20.612C172.716 20.1107 172.796 19.62 172.956 19.14C173.116 18.66 173.356 18.2333 173.676 17.86C174.007 17.476 174.412 17.172 174.892 16.948C175.383 16.7133 175.954 16.596 176.604 16.596C177.255 16.596 177.82 16.7133 178.3 16.948C178.791 17.172 179.196 17.476 179.516 17.86C179.847 18.2333 180.092 18.66 180.252 19.14C180.412 19.62 180.492 20.1107 180.492 20.612C180.492 21.1133 180.412 21.6093 180.252 22.1C180.092 22.58 179.847 23.012 179.516 23.396C179.196 23.78 178.791 24.0893 178.3 24.324C177.82 24.5587 177.255 24.676 176.604 24.676ZM174.764 20.612C174.764 20.9427 174.802 21.252 174.876 21.54C174.962 21.8173 175.079 22.0627 175.228 22.276C175.388 22.4893 175.58 22.66 175.804 22.788C176.039 22.9053 176.306 22.964 176.604 22.964C176.903 22.964 177.164 22.9053 177.388 22.788C177.623 22.66 177.815 22.4893 177.964 22.276C178.124 22.0627 178.242 21.8173 178.316 21.54C178.402 21.252 178.444 20.9427 178.444 20.612C178.444 20.292 178.402 19.988 178.316 19.7C178.242 19.412 178.124 19.1667 177.964 18.964C177.815 18.7507 177.623 18.5853 177.388 18.468C177.164 18.34 176.903 18.276 176.604 18.276C176.306 18.276 176.039 18.34 175.804 18.468C175.58 18.5853 175.388 18.7507 175.228 18.964C175.079 19.1667 174.962 19.412 174.876 19.7C174.802 19.988 174.764 20.292 174.764 20.612ZM183.486 24.5L180.734 16.788H182.91L184.302 21.428L185.822 16.788H187.102L188.638 21.428L190.03 16.788H192.206L189.454 24.5H187.934L186.462 20.036L185.006 24.5H183.486Z" fill="#101928"/>
<path d="M69.264 24.5H69.019V24.745H69.264V24.5ZM69.264 15.764H69.509V15.519H69.264V15.764ZM66.08 15.764H65.835V16.009H66.08V15.764ZM66.08 13.828V13.583H65.835V13.828H66.08ZM74.608 13.828H74.853V13.583H74.608V13.828ZM74.608 15.764V16.009H74.853V15.764H74.608ZM71.44 15.764V15.519H71.195V15.764H71.44ZM71.44 24.5V24.745H71.685V24.5H71.44ZM69.264 24.5H69.509V15.764H69.264H69.019V24.5H69.264ZM69.264 15.764V15.519H66.08V15.764V16.009H69.264V15.764ZM66.08 15.764H66.325V13.828H66.08H65.835V15.764H66.08ZM66.08 13.828V14.073H74.608V13.828V13.583H66.08V13.828ZM74.608 13.828H74.363V15.764H74.608H74.853V13.828H74.608ZM74.608 15.764V15.519H71.44V15.764V16.009H74.608V15.764ZM71.44 15.764H71.195V24.5H71.44H71.685V15.764H71.44ZM71.44 24.5V24.255H69.264V24.5V24.745H71.44V24.5ZM74.9306 24.5H74.6856V24.745H74.9306V24.5ZM74.9306 16.98L74.8937 16.7378L74.6856 16.7695V16.98H74.9306ZM76.8186 16.692L77.0611 16.6566L77.0255 16.4126L76.7817 16.4498L76.8186 16.692ZM76.9306 17.46L76.6882 17.4954L76.7619 18.0008L77.1099 17.6269L76.9306 17.46ZM77.7946 16.82L77.8871 17.0469L77.8911 17.0452L77.7946 16.82ZM79.2986 16.692L79.3491 16.4523H79.3491L79.2986 16.692ZM79.9226 16.868L80.1627 16.9169L80.2053 16.7074L80.0036 16.6368L79.9226 16.868ZM79.5546 18.676L79.4636 18.9035L79.7362 19.0125L79.7947 18.7249L79.5546 18.676ZM78.9466 18.484L78.8775 18.719L78.8854 18.7214L78.8935 18.7232L78.9466 18.484ZM77.5866 18.612L77.466 18.3987L77.462 18.4011L77.5866 18.612ZM77.0266 19.092L76.832 18.9432L76.7816 19.0091V19.092H77.0266ZM77.0266 24.5V24.745H77.2716V24.5H77.0266ZM74.9306 24.5H75.1756V16.98H74.9306H74.6856V24.5H74.9306ZM74.9306 16.98L74.9676 17.2222L76.8556 16.9342L76.8186 16.692L76.7817 16.4498L74.8937 16.7378L74.9306 16.98ZM76.8186 16.692L76.5762 16.7274L76.6882 17.4954L76.9306 17.46L77.1731 17.4246L77.0611 16.6566L76.8186 16.692ZM76.9306 17.46L77.1099 17.6269C77.3819 17.3348 77.6416 17.1469 77.8871 17.0469L77.7946 16.82L77.7022 16.5931C77.3716 16.7278 77.0553 16.9665 76.7513 17.2931L76.9306 17.46ZM77.7946 16.82L77.8911 17.0452C78.1598 16.9301 78.4363 16.873 78.7226 16.873V16.628V16.383C78.3689 16.383 78.0268 16.4539 77.6981 16.5948L77.7946 16.82ZM78.7226 16.628V16.873C78.8848 16.873 79.0598 16.8921 79.2482 16.9317L79.2986 16.692L79.3491 16.4523C79.1321 16.4066 78.9231 16.383 78.7226 16.383V16.628ZM79.2986 16.692L79.2482 16.9317C79.4396 16.9721 79.6374 17.0278 79.8417 17.0992L79.9226 16.868L80.0036 16.6368C79.7812 16.5589 79.563 16.4973 79.3491 16.4523L79.2986 16.692ZM79.9226 16.868L79.6825 16.8191L79.3145 18.6271L79.5546 18.676L79.7947 18.7249L80.1627 16.9169L79.9226 16.868ZM79.5546 18.676L79.6456 18.4485C79.422 18.3591 79.2066 18.2908 78.9998 18.2448L78.9466 18.484L78.8935 18.7232C79.0706 18.7625 79.2606 18.8223 79.4636 18.9035L79.5546 18.676ZM78.9466 18.484L79.0158 18.249C78.8129 18.1893 78.6083 18.159 78.4026 18.159V18.404V18.649C78.5596 18.649 78.7177 18.672 78.8775 18.719L78.9466 18.484ZM78.4026 18.404V18.159C78.0643 18.159 77.7504 18.238 77.4661 18.3987L77.5866 18.612L77.7072 18.8253C77.9135 18.7087 78.1436 18.649 78.4026 18.649V18.404ZM77.5866 18.612L77.462 18.4011C77.2054 18.5527 76.9931 18.7325 76.832 18.9432L77.0266 19.092L77.2212 19.2408C77.3375 19.0888 77.4985 18.9486 77.7113 18.8229L77.5866 18.612ZM77.0266 19.092H76.7816V24.5H77.0266H77.2716V19.092H77.0266ZM77.0266 24.5V24.255H74.9306V24.5V24.745H77.0266V24.5ZM84.9839 24.5L84.7422 24.5403L84.7763 24.745H84.9839V24.5ZM84.8879 23.924L85.1295 23.8837L85.049 23.4004L84.7107 23.7548L84.8879 23.924ZM84.0239 24.484L84.1099 24.7134L84.1137 24.712L84.0239 24.484ZM81.8799 24.5L81.9618 24.2691L81.9574 24.2676L81.8799 24.5ZM81.0319 24.036L80.8711 24.2209L80.8758 24.2249L81.0319 24.036ZM80.4399 23.268L80.2192 23.3745L80.2207 23.3776L80.4399 23.268ZM80.6639 20.868L80.4798 20.7063L80.4795 20.7067L80.6639 20.868ZM81.8159 20.052L81.7213 19.826L81.8159 20.052ZM83.3039 19.652L83.3378 19.8946L83.3039 19.652ZM84.7919 19.492L84.8089 19.7364L85.0369 19.7205V19.492H84.7919ZM84.5039 18.484L84.3255 18.6525L84.3357 18.6621L84.5039 18.484ZM82.8559 18.388L82.9655 18.6072L82.9692 18.6052L82.8559 18.388ZM82.2319 18.884L82.0918 19.085L82.2744 19.2122L82.4186 19.0427L82.2319 18.884ZM80.8079 17.892L80.6158 17.7399L80.4541 17.9441L80.6678 18.093L80.8079 17.892ZM81.4959 17.252L81.3638 17.0456L81.36 17.0481L81.4959 17.252ZM82.2959 16.852L82.2157 16.6205L82.2129 16.6215L82.2959 16.852ZM83.1119 16.66L83.1411 16.9034L83.1506 16.9019L83.1119 16.66ZM85.0799 16.772L85.0064 17.0058L85.0126 17.0076L85.0799 16.772ZM86.0399 17.3L85.8739 17.4805L85.8816 17.487L86.0399 17.3ZM86.6799 18.212L86.4524 18.303L86.4533 18.3053L86.6799 18.212ZM86.9039 24.5V24.745H87.1489V24.5H86.9039ZM84.8079 20.9H85.0529V20.6369L84.7904 20.6556L84.8079 20.9ZM83.8959 20.98L83.8707 20.7363L83.8698 20.7364L83.8959 20.98ZM82.4719 21.54L82.2931 21.3724L82.2928 21.3728L82.4719 21.54ZM82.5359 22.804L82.3789 22.9923L82.3855 22.9974L82.5359 22.804ZM84.1519 22.868L84.0576 22.6418L84.0542 22.6433L84.1519 22.868ZM84.8079 22.468L84.97 22.6517L85.0529 22.5786V22.468H84.8079ZM84.9839 24.5L85.2255 24.4597L85.1295 23.8837L84.8879 23.924L84.6462 23.9643L84.7422 24.5403L84.9839 24.5ZM84.8879 23.924L84.7107 23.7548C84.5149 23.9599 84.2585 24.1283 83.9341 24.2561L84.0239 24.484L84.1137 24.712C84.4933 24.5624 84.8128 24.3575 85.0651 24.0932L84.8879 23.924ZM84.0239 24.484L83.9379 24.2546C83.6276 24.3709 83.2786 24.431 82.8879 24.431V24.676V24.921C83.3292 24.921 83.7375 24.8531 84.1099 24.7134L84.0239 24.484ZM82.8879 24.676V24.431C82.5752 24.431 82.2669 24.3774 81.9618 24.2691L81.8799 24.5L81.7979 24.7309C82.1542 24.8573 82.5178 24.921 82.8879 24.921V24.676ZM81.8799 24.5L81.9574 24.2676C81.6643 24.1699 81.4086 24.0294 81.1879 23.8471L81.0319 24.036L80.8758 24.2249C81.1458 24.4479 81.4555 24.6168 81.8024 24.7324L81.8799 24.5ZM81.0319 24.036L81.1926 23.8511C80.9722 23.6594 80.7944 23.4292 80.659 23.1584L80.4399 23.268L80.2207 23.3776C80.384 23.7041 80.6009 23.9859 80.8711 24.2209L81.0319 24.036ZM80.4399 23.268L80.6605 23.1615C80.529 22.8891 80.4609 22.5795 80.4609 22.228H80.2159H79.9709C79.9709 22.6445 80.0521 23.0282 80.2192 23.3745L80.4399 23.268ZM80.2159 22.228H80.4609C80.4609 21.7069 80.5976 21.3158 80.8483 21.0293L80.6639 20.868L80.4795 20.7067C80.1328 21.1029 79.9709 21.6185 79.9709 22.228H80.2159ZM80.6639 20.868L80.8479 21.0297C81.1312 20.7074 81.484 20.4565 81.9105 20.278L81.8159 20.052L81.7213 19.826C81.2304 20.0315 80.8152 20.3246 80.4798 20.7063L80.6639 20.868ZM81.8159 20.052L81.9105 20.278C82.3482 20.0948 82.8236 19.9666 83.3378 19.8946L83.3039 19.652L83.2699 19.4094C82.7174 19.4867 82.2009 19.6252 81.7213 19.826L81.8159 20.052ZM83.3039 19.652L83.3378 19.8946C83.8665 19.8206 84.3568 19.768 84.8089 19.7364L84.7919 19.492L84.7748 19.2476C84.3096 19.28 83.8079 19.334 83.2699 19.4094L83.3039 19.652ZM84.7919 19.492H85.0369V19.236H84.7919H84.5469V19.492H84.7919ZM84.7919 19.236H85.0369C85.0369 18.864 84.9233 18.5431 84.6721 18.3059L84.5039 18.484L84.3357 18.6621C84.4685 18.7876 84.5469 18.968 84.5469 19.236H84.7919ZM84.5039 18.484L84.682 18.3158C84.4379 18.0573 84.0842 17.951 83.6719 17.951V18.196V18.441C84.0063 18.441 84.2072 18.5266 84.3258 18.6522L84.5039 18.484ZM83.6719 18.196V17.951C83.337 17.951 83.0256 18.0231 82.7425 18.1708L82.8559 18.388L82.9692 18.6052C83.1768 18.4969 83.4095 18.441 83.6719 18.441V18.196ZM82.8559 18.388L82.7463 18.1689C82.4802 18.3019 82.2464 18.4886 82.0452 18.7253L82.2319 18.884L82.4186 19.0427C82.58 18.8528 82.7622 18.7087 82.9654 18.6071L82.8559 18.388ZM82.2319 18.884L82.3719 18.683L80.9479 17.691L80.8079 17.892L80.6678 18.093L82.0918 19.085L82.2319 18.884ZM80.8079 17.892L81 18.0441C81.1877 17.8069 81.3984 17.6115 81.6318 17.4559L81.4959 17.252L81.36 17.0481C81.0814 17.2339 80.8334 17.4651 80.6158 17.7399L80.8079 17.892ZM81.4959 17.252L81.6279 17.4584C81.881 17.2964 82.1313 17.1716 82.3789 17.0825L82.2959 16.852L82.2129 16.6215C81.9271 16.7244 81.6441 16.8662 81.3638 17.0456L81.4959 17.252ZM82.2959 16.852L82.376 17.0835C82.6383 16.9927 82.8933 16.933 83.1411 16.9033L83.1119 16.66L83.0827 16.4167C82.7971 16.451 82.5081 16.5193 82.2157 16.6205L82.2959 16.852ZM83.1119 16.66L83.1506 16.9019C83.407 16.8609 83.6392 16.841 83.8479 16.841V16.596V16.351C83.6086 16.351 83.3501 16.3738 83.0732 16.4181L83.1119 16.66ZM83.8479 16.596V16.841C84.2745 16.841 84.66 16.8969 85.0064 17.0057L85.0799 16.772L85.1533 16.5383C84.7531 16.4125 84.3173 16.351 83.8479 16.351V16.596ZM85.0799 16.772L85.0126 17.0076C85.3519 17.1045 85.6374 17.2627 85.874 17.4803L86.0399 17.3L86.2058 17.1197C85.909 16.8467 85.5545 16.6528 85.1472 16.5364L85.0799 16.772ZM86.0399 17.3L85.8816 17.487C86.1252 17.6931 86.3163 17.9628 86.4524 18.303L86.6799 18.212L86.9074 18.121C86.7448 17.7145 86.5092 17.3762 86.1981 17.113L86.0399 17.3ZM86.6799 18.212L86.4533 18.3053C86.5872 18.6303 86.6589 19.0393 86.6589 19.54H86.9039H87.1489C87.1489 18.9954 87.0713 18.519 86.9064 18.1187L86.6799 18.212ZM86.9039 19.54H86.6589V24.5H86.9039H87.1489V19.54H86.9039ZM86.9039 24.5V24.255H84.9839V24.5V24.745H86.9039V24.5ZM84.8079 20.9L84.7904 20.6556C84.4891 20.6771 84.1825 20.704 83.8707 20.7363L83.8959 20.98L83.9211 21.2237C84.2279 21.192 84.5294 21.1655 84.8253 21.1444L84.8079 20.9ZM83.8959 20.98L83.8698 20.7364C83.5554 20.7701 83.2648 20.8323 82.9994 20.9246L83.0799 21.156L83.1604 21.3874C83.3856 21.3091 83.639 21.2539 83.922 21.2236L83.8959 20.98ZM83.0799 21.156L82.9994 20.9246C82.7208 21.0215 82.4831 21.1698 82.2931 21.3724L82.4719 21.54L82.6506 21.7076C82.7806 21.5689 82.9483 21.4612 83.1604 21.3874L83.0799 21.156ZM82.4719 21.54L82.2928 21.3728C82.0923 21.5877 82.0029 21.8656 82.0029 22.18H82.2479H82.4929C82.4929 21.9611 82.5528 21.8123 82.651 21.7072L82.4719 21.54ZM82.2479 22.18H82.0029C82.0029 22.5067 82.1296 22.7844 82.379 22.9922L82.5359 22.804L82.6927 22.6158C82.5581 22.5036 82.4929 22.3653 82.4929 22.18H82.2479ZM82.5359 22.804L82.3855 22.9974C82.6381 23.1939 82.9836 23.273 83.3839 23.273V23.028V22.783C83.0375 22.783 82.8177 22.7128 82.6863 22.6106L82.5359 22.804ZM83.3839 23.028V23.273C83.6843 23.273 83.9735 23.2127 84.2496 23.0927L84.1519 22.868L84.0542 22.6433C83.8396 22.7366 83.6168 22.783 83.3839 22.783V23.028ZM84.1519 22.868L84.2461 23.0942C84.5233 22.9786 84.7658 22.8319 84.97 22.6517L84.8079 22.468L84.6458 22.2843C84.4873 22.4241 84.2924 22.544 84.0576 22.6418L84.1519 22.868ZM84.8079 22.468H85.0529V20.9H84.8079H84.5629V22.468H84.8079ZM88.9306 24.5H88.6856V24.745H88.9306V24.5ZM88.9306 16.98L88.8937 16.7378L88.6856 16.7695V16.98H88.9306ZM90.8186 16.692L91.0606 16.6535L91.0223 16.4131L90.7817 16.4498L90.8186 16.692ZM90.9306 17.396L90.6887 17.4345L90.7548 17.8504L91.0837 17.5873L90.9306 17.396ZM92.0346 16.804L91.9571 16.5716L92.0346 16.804ZM95.5066 17.508L95.311 17.6556L95.3123 17.6572L95.5066 17.508ZM96.1946 24.5V24.745H96.4396V24.5H96.1946ZM94.0986 24.5H93.8536V24.745H94.0986V24.5ZM94.0506 19.316L93.8079 19.3491L93.8081 19.3506L94.0506 19.316ZM93.8586 18.74L93.6484 18.8661L93.6525 18.8725L93.8586 18.74ZM93.4426 18.388L93.3382 18.6099L93.3493 18.6145L93.4426 18.388ZM91.7946 18.484L91.6881 18.2633L91.6851 18.2649L91.7946 18.484ZM91.0266 19.028L90.8534 18.8548L90.7816 18.9265V19.028H91.0266ZM91.0266 24.5V24.745H91.2716V24.5H91.0266ZM88.9306 24.5H89.1756V16.98H88.9306H88.6856V24.5H88.9306ZM88.9306 16.98L88.9676 17.2222L90.8556 16.9342L90.8186 16.692L90.7817 16.4498L88.8937 16.7378L88.9306 16.98ZM90.8186 16.692L90.5767 16.7305L90.6887 17.4345L90.9306 17.396L91.1726 17.3575L91.0606 16.6535L90.8186 16.692ZM90.9306 17.396L91.0837 17.5873C91.3796 17.3506 91.7216 17.1666 92.1121 17.0364L92.0346 16.804L91.9571 16.5716C91.5157 16.7187 91.1217 16.9294 90.7776 17.2047L90.9306 17.396ZM92.0346 16.804L92.1121 17.0364C92.5045 16.9056 92.8944 16.841 93.2826 16.841V16.596V16.351C92.8389 16.351 92.3968 16.425 91.9571 16.5716L92.0346 16.804ZM93.2826 16.596V16.841C94.2584 16.841 94.9135 17.1286 95.311 17.6555L95.5066 17.508L95.7022 17.3605C95.1824 16.6714 94.3549 16.351 93.2826 16.351V16.596ZM95.5066 17.508L95.3123 17.6572C95.7281 18.1987 95.9496 18.9508 95.9496 19.94H96.1946H96.4396C96.4396 18.8812 96.2025 18.012 95.7009 17.3588L95.5066 17.508ZM96.1946 19.94H95.9496V24.5H96.1946H96.4396V19.94H96.1946ZM96.1946 24.5V24.255H94.0986V24.5V24.745H96.1946V24.5ZM94.0986 24.5H94.3436V20.1H94.0986H93.8536V24.5H94.0986ZM94.0986 20.1H94.3436C94.3436 19.7932 94.3272 19.5198 94.2932 19.2814L94.0506 19.316L93.8081 19.3506C93.838 19.5602 93.8536 19.8095 93.8536 20.1H94.0986ZM94.0506 19.316L94.2934 19.2829C94.2581 19.0241 94.1854 18.7952 94.0647 18.6075L93.8586 18.74L93.6525 18.8725C93.7239 18.9835 93.7792 19.1386 93.8079 19.3491L94.0506 19.316ZM93.8586 18.74L94.0687 18.6139C93.9442 18.4064 93.7633 18.2551 93.5359 18.1615L93.4426 18.388L93.3493 18.6145C93.4846 18.6702 93.5811 18.7536 93.6485 18.8661L93.8586 18.74ZM93.4426 18.388L93.5469 18.1663C93.321 18.06 93.0412 18.015 92.7226 18.015V18.26V18.505C93.0014 18.505 93.2016 18.5454 93.3383 18.6097L93.4426 18.388ZM92.7226 18.26V18.015C92.3725 18.015 92.027 18.0998 91.6881 18.2634L91.7946 18.484L91.9011 18.7046C92.181 18.5695 92.4541 18.505 92.7226 18.505V18.26ZM91.7946 18.484L91.6851 18.2649C91.3653 18.4247 91.0872 18.6209 90.8534 18.8548L91.0266 19.028L91.1999 19.2012C91.3927 19.0084 91.6266 18.8419 91.9042 18.7031L91.7946 18.484ZM91.0266 19.028H90.7816V24.5H91.0266H91.2716V19.028H91.0266ZM91.0266 24.5V24.255H88.9306V24.5V24.745H91.0266V24.5ZM99.2035 21.908L99.4199 21.7931L99.298 21.5637L99.0762 21.6987L99.2035 21.908ZM99.9715 22.772L99.8297 22.9718L99.8341 22.9748L99.9715 22.772ZM102.467 22.052L102.244 22.1515L102.248 22.1615L102.253 22.171L102.467 22.052ZM102.195 21.78L102.324 21.5713L102.195 21.78ZM101.636 21.54L101.71 21.3065L101.636 21.54ZM100.74 21.316L100.689 21.5557L100.69 21.556L100.74 21.316ZM99.6195 21.012L99.531 21.2406L99.5399 21.2437L99.6195 21.012ZM98.7715 20.548L98.6163 20.7377L98.6217 20.7419L98.7715 20.548ZM98.2275 19.876L98.0066 19.982L98.0084 19.9856L98.2275 19.876ZM98.2595 17.988L98.4752 18.1042L98.477 18.1008L98.2595 17.988ZM98.8835 17.252L99.0317 17.4471L99.0329 17.4462L98.8835 17.252ZM99.8915 16.772L99.9554 17.0086L99.9613 17.0068L99.8915 16.772ZM103.284 17.028L103.163 17.2416L103.167 17.2434L103.284 17.028ZM104.467 18.052L104.606 18.2541L104.808 18.1158L104.67 17.9137L104.467 18.052ZM102.995 19.06L102.799 19.207L102.94 19.3947L103.134 19.2621L102.995 19.06ZM102.259 18.42L102.138 18.6327L102.259 18.42ZM100.276 18.372L100.423 18.568L100.424 18.5666L100.276 18.372ZM100.34 19.412L100.449 19.1929L100.34 19.412ZM101.523 19.748L101.573 19.508L101.572 19.5079L101.523 19.748ZM102.771 20.1L102.684 20.329L102.692 20.3318L102.771 20.1ZM103.715 20.58L103.862 20.384L103.715 20.58ZM104.292 21.284L104.069 21.3868L104.074 21.397L104.292 21.284ZM104.243 23.348L104.456 23.4696L104.458 23.4664L104.243 23.348ZM103.54 24.1L103.672 24.3062L103.677 24.3027L103.54 24.1ZM102.484 24.532L102.54 24.7704L102.484 24.532ZM98.9475 24.164L98.818 24.372L98.8226 24.3748L98.9475 24.164ZM97.6515 22.852L97.5242 22.6427L97.3205 22.7666L97.4388 22.9736L97.6515 22.852ZM99.2035 21.908L98.9871 22.0229C99.1873 22.3996 99.4695 22.7162 99.8297 22.9718L99.9715 22.772L100.113 22.5722C99.8122 22.3585 99.5824 22.099 99.4199 21.7931L99.2035 21.908ZM99.9715 22.772L99.8341 22.9748C100.218 23.2346 100.708 23.353 101.284 23.353V23.108V22.863C100.771 22.863 100.387 22.7574 100.109 22.5692L99.9715 22.772ZM101.284 23.108V23.353C101.721 23.353 102.09 23.2893 102.357 23.1306C102.644 22.9598 102.792 22.6907 102.792 22.356H102.548H102.303C102.303 22.5227 102.241 22.6295 102.106 22.7094C101.952 22.8013 101.689 22.863 101.284 22.863V23.108ZM102.548 22.356H102.792C102.792 22.2064 102.755 22.0643 102.682 21.933L102.467 22.052L102.253 22.171C102.287 22.2317 102.303 22.2922 102.303 22.356H102.548ZM102.467 22.052L102.691 21.9525C102.62 21.7927 102.483 21.6694 102.324 21.5713L102.195 21.78L102.067 21.9887C102.185 22.0613 102.229 22.1193 102.244 22.1515L102.467 22.052ZM102.195 21.78L102.324 21.5713C102.162 21.4717 101.955 21.3845 101.71 21.3065L101.636 21.54L101.561 21.7735C101.786 21.8448 101.952 21.9176 102.067 21.9887L102.195 21.78ZM101.636 21.54L101.71 21.3065C101.464 21.2283 101.156 21.1517 100.789 21.076L100.74 21.316L100.69 21.556C101.048 21.6297 101.338 21.7023 101.561 21.7735L101.636 21.54ZM100.74 21.316L100.79 21.0763C100.393 20.9927 100.03 20.8939 99.6991 20.7803L99.6195 21.012L99.5399 21.2437C99.892 21.3647 100.275 21.4686 100.689 21.5557L100.74 21.316ZM99.6195 21.012L99.7079 20.7835C99.3951 20.6624 99.1341 20.5185 98.9213 20.3541L98.7715 20.548L98.6217 20.7419C98.8783 20.9401 99.1825 21.1056 99.5311 21.2405L99.6195 21.012ZM98.7715 20.548L98.9266 20.3584C98.7171 20.1869 98.5583 19.9897 98.4466 19.7664L98.2275 19.876L98.0084 19.9856C98.1527 20.2743 98.3566 20.5251 98.6164 20.7376L98.7715 20.548ZM98.2275 19.876L98.4484 19.77C98.3399 19.5439 98.2805 19.262 98.2805 18.916H98.0355H97.7905C97.7905 19.3167 97.8591 19.6748 98.0066 19.982L98.2275 19.876ZM98.0355 18.916H98.2805C98.2805 18.6117 98.3467 18.3428 98.4752 18.1042L98.2595 17.988L98.0438 17.8718C97.8736 18.1878 97.7905 18.5376 97.7905 18.916H98.0355ZM98.2595 17.988L98.477 18.1008C98.6091 17.8461 98.793 17.6285 99.0317 17.4471L98.8835 17.252L98.7353 17.0569C98.4407 17.2808 98.2086 17.5539 98.042 17.8752L98.2595 17.988ZM98.8835 17.252L99.0329 17.4462C99.2809 17.2554 99.5866 17.1082 99.9554 17.0085L99.8915 16.772L99.8276 16.5355C99.4071 16.6491 99.0408 16.8219 98.7341 17.0578L98.8835 17.252ZM99.8915 16.772L99.9613 17.0068C100.33 16.8973 100.743 16.841 101.203 16.841V16.596V16.351C100.704 16.351 100.242 16.4121 99.8217 16.5372L99.8915 16.772ZM101.203 16.596V16.841C102.055 16.841 102.702 16.9818 103.163 17.2415L103.284 17.028L103.404 16.8145C102.841 16.4982 102.101 16.351 101.203 16.351V16.596ZM103.284 17.028L103.167 17.2434C103.651 17.5056 104.014 17.8226 104.265 18.1903L104.467 18.052L104.67 17.9137C104.367 17.4707 103.94 17.105 103.4 16.8126L103.284 17.028ZM104.467 18.052L104.329 17.8499L102.857 18.8579L102.995 19.06L103.134 19.2621L104.606 18.2541L104.467 18.052ZM102.995 19.06L103.192 18.913C102.978 18.6283 102.707 18.3933 102.381 18.2073L102.259 18.42L102.138 18.6327C102.41 18.7881 102.629 18.9797 102.799 19.207L102.995 19.06ZM102.259 18.42L102.381 18.2073C102.039 18.012 101.644 17.919 101.203 17.919V18.164V18.409C101.574 18.409 101.882 18.4867 102.138 18.6327L102.259 18.42ZM101.203 18.164V17.919C100.755 17.919 100.375 17.9874 100.127 18.1774L100.276 18.372L100.424 18.5666C100.538 18.4793 100.778 18.409 101.203 18.409V18.164ZM100.276 18.372L100.129 18.176C99.8961 18.3503 99.7745 18.5936 99.7745 18.884H100.02H100.264C100.264 18.7478 100.314 18.6497 100.423 18.568L100.276 18.372ZM100.02 18.884H99.7745C99.7745 19.0428 99.8093 19.1939 99.89 19.327C99.9709 19.4605 100.089 19.5605 100.23 19.6311L100.34 19.412L100.449 19.1929C100.377 19.1569 100.335 19.1155 100.309 19.073C100.283 19.0301 100.264 18.9706 100.264 18.884H100.02ZM100.34 19.412L100.23 19.6311C100.475 19.7539 100.899 19.8709 101.475 19.9881L101.523 19.748L101.572 19.5079C100.996 19.3904 100.63 19.2834 100.449 19.1929L100.34 19.412ZM101.523 19.748L101.474 19.988C101.934 20.0819 102.336 20.1959 102.684 20.3288L102.771 20.1L102.859 19.8712C102.481 19.7268 102.052 19.6061 101.573 19.508L101.523 19.748ZM102.771 20.1L102.692 20.3318C103.047 20.4533 103.337 20.6025 103.569 20.776L103.715 20.58L103.862 20.384C103.582 20.1735 103.243 20.0027 102.851 19.8682L102.771 20.1ZM103.715 20.58L103.569 20.776C103.794 20.9448 103.959 21.148 104.069 21.3867L104.292 21.284L104.514 21.1813C104.368 20.8653 104.149 20.5992 103.862 20.384L103.715 20.58ZM104.292 21.284L104.074 21.397C104.19 21.6204 104.255 21.9047 104.255 22.26H104.5H104.744C104.744 21.8473 104.67 21.4809 104.509 21.171L104.292 21.284ZM104.5 22.26H104.255C104.255 22.642 104.176 22.9625 104.029 23.2296L104.243 23.348L104.458 23.4664C104.652 23.1148 104.744 22.71 104.744 22.26H104.5ZM104.243 23.348L104.031 23.2264C103.88 23.4911 103.671 23.7145 103.402 23.8973L103.54 24.1L103.677 24.3027C104.005 24.0802 104.266 23.8023 104.456 23.4696L104.243 23.348ZM103.54 24.1L103.407 23.8939C103.135 24.0686 102.81 24.2029 102.427 24.2936L102.484 24.532L102.54 24.7704C102.968 24.6691 103.346 24.5154 103.672 24.3061L103.54 24.1ZM102.484 24.532L102.427 24.2936C102.042 24.3848 101.629 24.431 101.188 24.431V24.676V24.921C101.663 24.921 102.114 24.8712 102.54 24.7704L102.484 24.532ZM101.188 24.676V24.431C100.299 24.431 99.5991 24.2654 99.0724 23.9532L98.9475 24.164L98.8226 24.3748C99.4479 24.7453 100.242 24.921 101.188 24.921V24.676ZM98.9475 24.164L99.077 23.956C98.5424 23.6232 98.1407 23.2142 97.8642 22.7304L97.6515 22.852L97.4388 22.9736C97.7597 23.5351 98.2219 24.0008 98.818 24.372L98.9475 24.164ZM97.6515 22.852L97.7788 23.0613L99.3308 22.1173L99.2035 21.908L99.0762 21.6987L97.5242 22.6427L97.6515 22.852ZM106.437 24.5H106.192V24.745H106.437V24.5ZM106.437 18.388H106.682V18.143H106.437V18.388ZM105.365 18.388H105.12V18.633H105.365V18.388ZM105.365 16.788V16.543H105.12V16.788H105.365ZM106.437 16.788V17.033H106.682V16.788H106.437ZM106.645 15.204L106.417 15.1165L106.645 15.204ZM107.205 14.308L107.032 14.1348L107.205 14.308ZM108.053 13.78L108.131 14.0125L108.135 14.0109L108.053 13.78ZM110.453 13.732L110.399 13.971L110.407 13.9725L110.453 13.732ZM111.493 14.068L111.722 14.155L111.802 13.945L111.6 13.8474L111.493 14.068ZM110.885 15.668L110.78 15.8892L111.02 16.0035L111.114 15.755L110.885 15.668ZM108.789 15.604L108.621 15.4256V15.4256L108.789 15.604ZM108.517 16.788H108.272V17.033H108.517V16.788ZM110.389 16.788L110.631 16.8267L110.677 16.543H110.389V16.788ZM110.133 18.388V18.633H110.342L110.375 18.4267L110.133 18.388ZM108.533 18.388V18.143H108.288V18.388H108.533ZM108.533 24.5V24.745H108.778V24.5H108.533ZM106.437 24.5H106.682V18.388H106.437H106.192V24.5H106.437ZM106.437 18.388V18.143H105.365V18.388V18.633H106.437V18.388ZM105.365 18.388H105.61V16.788H105.365H105.12V18.388H105.365ZM105.365 16.788V17.033H106.437V16.788V16.543H105.365V16.788ZM106.437 16.788H106.682V16.516H106.437H106.192V16.788H106.437ZM106.437 16.516H106.682C106.682 16.0249 106.749 15.6189 106.874 15.2915L106.645 15.204L106.417 15.1165C106.264 15.5144 106.192 15.9831 106.192 16.516H106.437ZM106.645 15.204L106.874 15.2915C107.003 14.9556 107.172 14.6878 107.379 14.4812L107.205 14.308L107.032 14.1348C106.769 14.3976 106.565 14.7271 106.417 15.1165L106.645 15.204ZM107.205 14.308L107.379 14.4812C107.598 14.262 107.848 14.1067 108.131 14.0124L108.053 13.78L107.976 13.5476C107.619 13.6666 107.304 13.8633 107.032 14.1348L107.205 14.308ZM108.053 13.78L108.135 14.0109C108.437 13.9037 108.767 13.849 109.125 13.849V13.604V13.359C108.716 13.359 108.331 13.4216 107.971 13.5491L108.053 13.78ZM109.125 13.604V13.849C109.625 13.849 110.048 13.8907 110.399 13.9708L110.453 13.732L110.508 13.4932C110.112 13.4026 109.65 13.359 109.125 13.359V13.604ZM110.453 13.732L110.407 13.9725C110.773 14.0437 111.099 14.1496 111.387 14.2886L111.493 14.068L111.6 13.8474C111.269 13.6877 110.902 13.5696 110.5 13.4915L110.453 13.732ZM111.493 14.068L111.264 13.981L110.656 15.581L110.885 15.668L111.114 15.755L111.722 14.155L111.493 14.068ZM110.885 15.668L110.991 15.4468C110.509 15.2176 109.999 15.103 109.461 15.103V15.348V15.593C109.927 15.593 110.365 15.6917 110.78 15.8892L110.885 15.668ZM109.461 15.348V15.103C109.137 15.103 108.852 15.2089 108.621 15.4256L108.789 15.604L108.957 15.7824C109.09 15.6577 109.252 15.593 109.461 15.593V15.348ZM108.789 15.604L108.621 15.4256C108.364 15.6682 108.272 16.0662 108.272 16.532H108.517H108.762C108.762 16.1018 108.852 15.8812 108.957 15.7824L108.789 15.604ZM108.517 16.532H108.272V16.788H108.517H108.762V16.532H108.517ZM108.517 16.788V17.033H110.389V16.788V16.543H108.517V16.788ZM110.389 16.788L110.147 16.7493L109.891 18.3493L110.133 18.388L110.375 18.4267L110.631 16.8267L110.389 16.788ZM110.133 18.388V18.143H108.533V18.388V18.633H110.133V18.388ZM108.533 18.388H108.288V24.5H108.533H108.778V18.388H108.533ZM108.533 24.5V24.255H106.437V24.5V24.745H108.533V24.5ZM112.89 21.14V20.895H112.62L112.647 21.1644L112.89 21.14ZM113.098 21.972L112.875 22.0734L113.098 21.972ZM113.498 22.548L113.666 22.3689L113.498 22.548ZM114.026 22.884L113.938 23.1123L113.945 23.1152L113.953 23.1176L114.026 22.884ZM115.658 22.788L115.755 23.0133L115.762 23.0102L115.658 22.788ZM116.586 21.908L116.714 21.6987L116.519 21.5804L116.387 21.7656L116.586 21.908ZM118.138 22.852L118.342 22.9879L118.484 22.7754L118.266 22.6427L118.138 22.852ZM116.602 24.276L116.707 24.4976L116.709 24.4967L116.602 24.276ZM111.914 23.7L111.741 23.8733L111.747 23.8786L111.914 23.7ZM111.098 22.436L110.871 22.5278L111.098 22.436ZM111.082 18.916L110.855 18.8242L110.854 18.8284L111.082 18.916ZM111.898 17.652L111.725 17.4788L111.725 17.4788L111.898 17.652ZM113.082 16.868L112.992 16.6402L112.99 16.6409L113.082 16.868ZM117.13 17.732L116.945 17.8917L116.947 17.8944L117.13 17.732ZM118.154 21.14V21.385H118.403L118.399 21.1366L118.154 21.14ZM116.026 19.716V19.961H116.293L116.271 19.6957L116.026 19.716ZM115.85 19.044L115.626 19.1436L115.631 19.1536L115.85 19.044ZM115.05 18.276L115.136 18.0466V18.0466L115.05 18.276ZM113.514 18.596L113.671 18.7842L113.675 18.7811L113.514 18.596ZM112.938 19.716L112.696 19.6836L112.659 19.961H112.938V19.716ZM112.89 21.14L112.647 21.1644C112.681 21.5047 112.755 21.8092 112.875 22.0734L113.098 21.972L113.321 21.8706C113.228 21.6655 113.164 21.4153 113.134 21.1156L112.89 21.14ZM113.098 21.972L112.875 22.0734C112.993 22.3322 113.144 22.5522 113.331 22.7271L113.498 22.548L113.666 22.3689C113.533 22.2451 113.417 22.0811 113.321 21.8706L113.098 21.972ZM113.498 22.548L113.331 22.7271C113.513 22.8963 113.715 23.0257 113.938 23.1123L114.026 22.884L114.115 22.6557C113.954 22.593 113.804 22.4983 113.666 22.3689L113.498 22.548ZM114.026 22.884L113.953 23.1176C114.179 23.1892 114.412 23.225 114.65 23.225V22.98V22.735C114.462 22.735 114.279 22.7068 114.1 22.6504L114.026 22.884ZM114.65 22.98V23.225C115.052 23.225 115.422 23.1561 115.755 23.0132L115.658 22.788L115.562 22.5628C115.298 22.6759 114.995 22.735 114.65 22.735V22.98ZM115.658 22.788L115.762 23.0102C116.116 22.8455 116.456 22.5124 116.786 22.0504L116.586 21.908L116.387 21.7656C116.077 22.1996 115.798 22.4532 115.555 22.5658L115.658 22.788ZM116.586 21.908L116.459 22.1173L118.011 23.0613L118.138 22.852L118.266 22.6427L116.714 21.6987L116.586 21.908ZM118.138 22.852L117.935 22.7161C117.505 23.3611 117.023 23.8014 116.496 24.0553L116.602 24.276L116.709 24.4967C117.333 24.196 117.876 23.6869 118.342 22.9879L118.138 22.852ZM116.602 24.276L116.498 24.0544C115.972 24.3024 115.338 24.431 114.586 24.431V24.676V24.921C115.393 24.921 116.102 24.783 116.707 24.4976L116.602 24.276ZM114.586 24.676V24.431C114.1 24.431 113.642 24.3551 113.211 24.2047L113.13 24.436L113.05 24.6673C113.536 24.8369 114.048 24.921 114.586 24.921V24.676ZM113.13 24.436L113.211 24.2047C112.785 24.0559 112.409 23.8285 112.082 23.5214L111.914 23.7L111.747 23.8786C112.124 24.2329 112.559 24.4961 113.05 24.6673L113.13 24.436ZM111.914 23.7L112.088 23.5268C111.772 23.2113 111.517 22.8187 111.326 22.3442L111.098 22.436L110.871 22.5278C111.085 23.056 111.374 23.506 111.741 23.8732L111.914 23.7ZM111.098 22.436L111.326 22.3442C111.137 21.879 111.039 21.3144 111.039 20.644H110.794H110.549C110.549 21.3603 110.654 21.9904 110.871 22.5278L111.098 22.436ZM110.794 20.644H111.039C111.039 20.0171 111.132 19.4718 111.311 19.0036L111.082 18.916L110.854 18.8284C110.649 19.3629 110.549 19.9696 110.549 20.644H110.794ZM111.082 18.916L111.31 19.0078C111.501 18.5333 111.756 18.1407 112.072 17.8252L111.898 17.652L111.725 17.4788C111.358 17.846 111.069 18.296 110.855 18.8242L111.082 18.916ZM111.898 17.652L112.072 17.8252C112.39 17.5072 112.757 17.2641 113.174 17.0951L113.082 16.868L112.99 16.6409C112.512 16.8345 112.09 17.1142 111.725 17.4788L111.898 17.652ZM113.082 16.868L113.172 17.0958C113.601 16.9263 114.056 16.841 114.538 16.841V16.596V16.351C113.997 16.351 113.481 16.4471 112.992 16.6402L113.082 16.868ZM114.538 16.596V16.841C115.551 16.841 116.344 17.1932 116.945 17.8917L117.13 17.732L117.316 17.5723C116.615 16.7562 115.681 16.351 114.538 16.351V16.596ZM117.13 17.732L116.947 17.8944C117.553 18.5791 117.888 19.647 117.909 21.1434L118.154 21.14L118.399 21.1366C118.378 19.5824 118.03 18.3782 117.314 17.5696L117.13 17.732ZM118.154 21.14V20.895H112.89V21.14V21.385H118.154V21.14ZM116.026 19.716L116.271 19.6957C116.247 19.4146 116.182 19.1592 116.07 18.9344L115.85 19.044L115.631 19.1536C115.711 19.3128 115.763 19.5054 115.782 19.7363L116.026 19.716ZM115.85 19.044L116.074 18.9445C115.977 18.7255 115.846 18.537 115.681 18.384L115.514 18.564L115.348 18.744C115.46 18.847 115.553 18.9785 115.626 19.1435L115.85 19.044ZM115.514 18.564L115.681 18.384C115.519 18.2353 115.338 18.1221 115.136 18.0466L115.05 18.276L114.964 18.5054C115.104 18.5579 115.232 18.6367 115.348 18.744L115.514 18.564ZM115.05 18.276L115.136 18.0466C114.94 17.973 114.74 17.935 114.538 17.935V18.18V18.425C114.678 18.425 114.819 18.451 114.964 18.5054L115.05 18.276ZM114.538 18.18V17.935C114.107 17.935 113.711 18.1018 113.354 18.4109L113.514 18.596L113.675 18.7811C113.958 18.5356 114.244 18.425 114.538 18.425V18.18ZM113.514 18.596L113.358 18.4078C112.983 18.7201 112.766 19.1533 112.696 19.6836L112.938 19.716L113.181 19.7484C113.239 19.3187 113.406 19.0052 113.671 18.7842L113.514 18.596ZM112.938 19.716V19.961H116.026V19.716V19.471H112.938V19.716ZM119.681 24.5H119.436V24.745H119.681V24.5ZM119.681 16.98L119.644 16.7378L119.436 16.7695V16.98H119.681ZM121.569 16.692L121.811 16.6566L121.775 16.4126L121.532 16.4498L121.569 16.692ZM121.681 17.46L121.438 17.4954L121.512 18.0008L121.86 17.6269L121.681 17.46ZM122.545 16.82L122.637 17.0469L122.641 17.0452L122.545 16.82ZM124.049 16.692L124.099 16.4523L124.049 16.692ZM124.673 16.868L124.913 16.9169L124.955 16.7074L124.754 16.6368L124.673 16.868ZM124.305 18.676L124.214 18.9035L124.486 19.0125L124.545 18.7249L124.305 18.676ZM123.697 18.484L123.627 18.719L123.635 18.7214L123.643 18.7232L123.697 18.484ZM122.337 18.612L122.216 18.3987L122.212 18.4011L122.337 18.612ZM121.777 19.092L121.582 18.9432L121.532 19.0091V19.092H121.777ZM121.777 24.5V24.745H122.022V24.5H121.777ZM119.681 24.5H119.926V16.98H119.681H119.436V24.5H119.681ZM119.681 16.98L119.718 17.2222L121.606 16.9342L121.569 16.692L121.532 16.4498L119.644 16.7378L119.681 16.98ZM121.569 16.692L121.326 16.7274L121.438 17.4954L121.681 17.46L121.923 17.4246L121.811 16.6566L121.569 16.692ZM121.681 17.46L121.86 17.6269C122.132 17.3348 122.392 17.1469 122.637 17.0469L122.545 16.82L122.452 16.5931C122.122 16.7278 121.805 16.9665 121.501 17.2931L121.681 17.46ZM122.545 16.82L122.641 17.0452C122.91 16.9301 123.186 16.873 123.473 16.873V16.628V16.383C123.119 16.383 122.777 16.4539 122.448 16.5948L122.545 16.82ZM123.473 16.628V16.873C123.635 16.873 123.81 16.8921 123.998 16.9317L124.049 16.692L124.099 16.4523C123.882 16.4066 123.673 16.383 123.473 16.383V16.628ZM124.049 16.692L123.998 16.9317C124.19 16.9721 124.387 17.0278 124.592 17.0992L124.673 16.868L124.754 16.6368C124.531 16.5589 124.313 16.4973 124.099 16.4523L124.049 16.692ZM124.673 16.868L124.433 16.8191L124.065 18.6271L124.305 18.676L124.545 18.7249L124.913 16.9169L124.673 16.868ZM124.305 18.676L124.396 18.4485C124.172 18.3591 123.957 18.2908 123.75 18.2448L123.697 18.484L123.643 18.7232C123.821 18.7625 124.011 18.8223 124.214 18.9035L124.305 18.676ZM123.697 18.484L123.766 18.249C123.563 18.1893 123.358 18.159 123.153 18.159V18.404V18.649C123.31 18.649 123.468 18.672 123.627 18.719L123.697 18.484ZM123.153 18.404V18.159C122.814 18.159 122.5 18.238 122.216 18.3987L122.337 18.612L122.457 18.8253C122.664 18.7087 122.894 18.649 123.153 18.649V18.404ZM122.337 18.612L122.212 18.4011C121.955 18.5527 121.743 18.7325 121.582 18.9432L121.777 19.092L121.971 19.2408C122.087 19.0888 122.249 18.9486 122.461 18.8229L122.337 18.612ZM121.777 19.092H121.532V24.5H121.777H122.022V19.092H121.777ZM121.777 24.5V24.255H119.681V24.5V24.745H121.777V24.5ZM130.213 24.5L129.974 24.5544L130.018 24.745H130.213V24.5ZM127.781 13.828V13.583H127.474L127.542 13.8824L127.781 13.828ZM129.941 13.828L130.181 13.7783L130.141 13.583H129.941V13.828ZM131.253 20.164L131.013 20.2137L131.2 21.113L131.486 20.2404L131.253 20.164ZM133.333 13.828V13.583H133.156L133.1 13.7516L133.333 13.828ZM134.661 13.828L134.894 13.7516L134.839 13.583H134.661V13.828ZM136.741 20.164L136.508 20.2404L136.792 21.1046L136.981 20.2148L136.741 20.164ZM138.085 13.828V13.583H137.887L137.846 13.7772L138.085 13.828ZM140.229 13.828L140.468 13.8828L140.537 13.583H140.229V13.828ZM137.781 24.5V24.745H137.976L138.02 24.5548L137.781 24.5ZM136.421 24.5L136.189 24.5789L136.246 24.745H136.421V24.5ZM133.989 17.348L134.221 17.2691L133.988 16.5847L133.757 17.2696L133.989 17.348ZM131.573 24.5V24.745H131.749L131.805 24.5784L131.573 24.5ZM130.213 24.5L130.452 24.4456L128.02 13.7736L127.781 13.828L127.542 13.8824L129.974 24.5544L130.213 24.5ZM127.781 13.828V14.073H129.941V13.828V13.583H127.781V13.828ZM129.941 13.828L129.701 13.8777L131.013 20.2137L131.253 20.164L131.493 20.1143L130.181 13.7783L129.941 13.828ZM131.253 20.164L131.486 20.2404L133.566 13.9044L133.333 13.828L133.1 13.7516L131.02 20.0876L131.253 20.164ZM133.333 13.828V14.073H134.661V13.828V13.583H133.333V13.828ZM134.661 13.828L134.428 13.9044L136.508 20.2404L136.741 20.164L136.974 20.0876L134.894 13.7516L134.661 13.828ZM136.741 20.164L136.981 20.2148L138.325 13.8788L138.085 13.828L137.846 13.7772L136.502 20.1132L136.741 20.164ZM138.085 13.828V14.073H140.229V13.828V13.583H138.085V13.828ZM140.229 13.828L139.99 13.7732L137.542 24.4452L137.781 24.5L138.02 24.5548L140.468 13.8828L140.229 13.828ZM137.781 24.5V24.255H136.421V24.5V24.745H137.781V24.5ZM136.421 24.5L136.653 24.4211L134.221 17.2691L133.989 17.348L133.757 17.4269L136.189 24.5789L136.421 24.5ZM133.989 17.348L133.757 17.2696L131.341 24.4216L131.573 24.5L131.805 24.5784L134.221 17.4264L133.989 17.348ZM131.573 24.5V24.255H130.213V24.5V24.745H131.573V24.5ZM142.564 24.324L142.457 24.5441L142.458 24.545L142.564 24.324ZM141.348 23.396L141.16 23.5529L141.162 23.5559L141.348 23.396ZM140.628 22.1L140.395 22.176L140.396 22.1775L140.628 22.1ZM140.628 19.14L140.861 19.2175L140.628 19.14ZM141.348 17.86L141.162 17.7001L141.162 17.7006L141.348 17.86ZM142.564 16.948L142.668 17.17L142.67 17.169L142.564 16.948ZM145.972 16.948L145.864 17.1682L145.87 17.1709L145.972 16.948ZM147.188 17.86L147 18.0169L147.005 18.0224L147.188 17.86ZM147.924 19.14L148.157 19.0625L147.924 19.14ZM147.924 22.1L148.157 22.1775L148.157 22.176L147.924 22.1ZM147.188 23.396L147.002 23.2361L147 23.2392L147.188 23.396ZM145.972 24.324L145.866 24.103L145.865 24.1039L145.972 24.324ZM142.548 21.54L142.311 21.6015L142.314 21.6121L142.548 21.54ZM142.9 22.276L142.699 22.4166L142.704 22.423L142.9 22.276ZM143.476 22.788L143.354 23.001L143.367 23.0071L143.476 22.788ZM145.06 22.788L145.174 23.0051L145.177 23.0031L145.06 22.788ZM145.636 22.276L145.44 22.1289L145.435 22.1355L145.636 22.276ZM145.988 21.54L145.753 21.4704L145.752 21.4763L145.988 21.54ZM145.988 19.7L145.751 19.7615L145.753 19.7696L145.988 19.7ZM145.636 18.964L145.435 19.1047L145.444 19.1158L145.636 18.964ZM145.06 18.468L144.938 18.681L144.951 18.6871L145.06 18.468ZM143.476 18.468L143.59 18.6851L143.593 18.6831L143.476 18.468ZM142.9 18.964L142.704 18.817L142.703 18.8187L142.9 18.964ZM142.548 19.7L142.313 19.6304L142.311 19.6385L142.548 19.7ZM144.276 24.676V24.431C143.655 24.431 143.122 24.3191 142.67 24.103L142.564 24.324L142.458 24.545C142.988 24.7983 143.596 24.921 144.276 24.921V24.676ZM142.564 24.324L142.672 24.1039C142.22 23.883 141.842 23.5936 141.534 23.2361L141.348 23.396L141.162 23.5559C141.516 23.9664 141.948 24.2957 142.457 24.5441L142.564 24.324ZM141.348 23.396L141.536 23.2392C141.236 22.8789 141.011 22.4739 140.861 22.0225L140.628 22.1L140.396 22.1775C140.565 22.6861 140.82 23.1451 141.16 23.5528L141.348 23.396ZM140.628 22.1L140.861 22.024C140.709 21.5572 140.633 21.0868 140.633 20.612H140.388H140.143C140.143 21.1399 140.227 21.6615 140.395 22.176L140.628 22.1ZM140.388 20.612H140.633C140.633 20.1372 140.709 19.6727 140.861 19.2175L140.628 19.14L140.396 19.0625C140.227 19.5673 140.143 20.0841 140.143 20.612H140.388ZM140.628 19.14L140.861 19.2175C141.011 18.7667 141.235 18.368 141.534 18.0194L141.348 17.86L141.162 17.7006C140.821 18.0987 140.565 18.5533 140.396 19.0625L140.628 19.14ZM141.348 17.86L141.534 18.0199C141.841 17.6634 142.218 17.38 142.668 17.17L142.564 16.948L142.461 16.726C141.951 16.964 141.517 17.2886 141.162 17.7001L141.348 17.86ZM142.564 16.948L142.67 17.169C143.122 16.9529 143.655 16.841 144.276 16.841V16.596V16.351C143.596 16.351 142.988 16.4737 142.458 16.727L142.564 16.948ZM144.276 16.596V16.841C144.897 16.841 145.425 16.953 145.865 17.1681L145.972 16.948L146.08 16.7279C145.56 16.4737 144.956 16.351 144.276 16.351V16.596ZM145.972 16.948L145.87 17.1709C146.33 17.3808 146.705 17.6632 147 18.0168L147.188 17.86L147.376 17.7032C147.031 17.2888 146.595 16.9631 146.074 16.7251L145.972 16.948ZM147.188 17.86L147.005 18.0224C147.313 18.3707 147.542 18.7683 147.692 19.2175L147.924 19.14L148.157 19.0625C147.986 18.5517 147.724 18.096 147.372 17.6976L147.188 17.86ZM147.924 19.14L147.692 19.2175C147.843 19.6727 147.919 20.1372 147.919 20.612H148.164H148.409C148.409 20.0841 148.325 19.5673 148.157 19.0625L147.924 19.14ZM148.164 20.612H147.919C147.919 21.0868 147.843 21.5572 147.691 22.024L147.924 22.1L148.157 22.176C148.325 21.6615 148.409 21.1399 148.409 20.612H148.164ZM147.924 22.1L147.692 22.0225C147.542 22.4722 147.312 22.8763 147.002 23.2361L147.188 23.396L147.374 23.5559C147.725 23.1477 147.986 22.6878 148.157 22.1775L147.924 22.1ZM147.188 23.396L147 23.2392C146.704 23.5938 146.328 23.8822 145.866 24.103L145.972 24.324L146.078 24.545C146.597 24.2965 147.032 23.9662 147.376 23.5528L147.188 23.396ZM145.972 24.324L145.865 24.1039C145.425 24.319 144.897 24.431 144.276 24.431V24.676V24.921C144.956 24.921 145.56 24.7983 146.08 24.5441L145.972 24.324ZM142.436 20.612H142.191C142.191 20.9611 142.231 21.2913 142.311 21.6015L142.548 21.54L142.785 21.4785C142.716 21.2127 142.681 20.9242 142.681 20.612H142.436ZM142.548 21.54L142.314 21.6121C142.406 21.911 142.534 22.18 142.699 22.4165L142.9 22.276L143.101 22.1355C142.968 21.9453 142.861 21.7236 142.782 21.4679L142.548 21.54ZM142.9 22.276L142.704 22.423C142.884 22.6622 143.101 22.8556 143.355 23.0007L143.476 22.788L143.598 22.5753C143.404 22.4644 143.237 22.3165 143.096 22.129L142.9 22.276ZM143.476 22.788L143.367 23.0071C143.64 23.1437 143.945 23.209 144.276 23.209V22.964V22.719C144.01 22.719 143.782 22.667 143.586 22.5689L143.476 22.788ZM144.276 22.964V23.209C144.607 23.209 144.909 23.1438 145.174 23.005L145.06 22.788L144.946 22.571C144.763 22.6669 144.542 22.719 144.276 22.719V22.964ZM145.06 22.788L145.177 23.0031C145.444 22.8575 145.665 22.6616 145.837 22.4165L145.636 22.276L145.435 22.1355C145.308 22.317 145.145 22.4625 144.943 22.5729L145.06 22.788ZM145.636 22.276L145.832 22.423C146.012 22.1829 146.143 21.9088 146.225 21.6037L145.988 21.54L145.752 21.4763C145.684 21.7259 145.58 21.9425 145.44 22.129L145.636 22.276ZM145.988 21.54L146.223 21.6096C146.316 21.2969 146.361 20.9639 146.361 20.612H146.116H145.871C145.871 20.9215 145.831 21.2071 145.753 21.4704L145.988 21.54ZM146.116 20.612H146.361C146.361 20.27 146.315 19.9424 146.223 19.6304L145.988 19.7L145.753 19.7696C145.831 20.0336 145.871 20.314 145.871 20.612H146.116ZM145.988 19.7L146.225 19.6385C146.143 19.3226 146.012 19.0453 145.828 18.8122L145.636 18.964L145.444 19.1158C145.58 19.288 145.684 19.5014 145.751 19.7615L145.988 19.7ZM145.636 18.964L145.837 18.8235C145.664 18.5765 145.441 18.3843 145.17 18.2489L145.06 18.468L144.951 18.6871C145.149 18.7864 145.31 18.9248 145.435 19.1045L145.636 18.964ZM145.06 18.468L145.182 18.2553C144.915 18.103 144.611 18.031 144.276 18.031V18.276V18.521C144.539 18.521 144.757 18.577 144.939 18.6807L145.06 18.468ZM144.276 18.276V18.031C143.941 18.031 143.634 18.1031 143.359 18.2529L143.476 18.468L143.593 18.6831C143.788 18.5769 144.014 18.521 144.276 18.521V18.276ZM143.476 18.468L143.362 18.251C143.104 18.3861 142.885 18.5761 142.704 18.817L142.9 18.964L143.096 19.111C143.235 18.9252 143.4 18.7845 143.59 18.685L143.476 18.468ZM142.9 18.964L142.703 18.8187C142.534 19.0481 142.405 19.3203 142.313 19.6304L142.548 19.7L142.783 19.7696C142.862 19.5037 142.968 19.2852 143.097 19.1093L142.9 18.964ZM142.548 19.7L142.311 19.6385C142.231 19.948 142.191 20.2728 142.191 20.612H142.436H142.681C142.681 20.3112 142.716 20.028 142.785 19.7615L142.548 19.7ZM149.759 24.5H149.514V24.745H149.759V24.5ZM149.759 16.98L149.722 16.7378L149.514 16.7695V16.98H149.759ZM151.647 16.692L151.889 16.6566L151.854 16.4126L151.61 16.4498L151.647 16.692ZM151.759 17.46L151.516 17.4954L151.59 18.0008L151.938 17.6269L151.759 17.46ZM152.623 16.82L152.715 17.0469L152.719 17.0452L152.623 16.82ZM154.127 16.692L154.177 16.4523L154.127 16.692ZM154.751 16.868L154.991 16.9169L155.033 16.7074L154.832 16.6368L154.751 16.868ZM154.383 18.676L154.292 18.9035L154.564 19.0125L154.623 18.7249L154.383 18.676ZM153.775 18.484L153.706 18.719L153.714 18.7214L153.722 18.7232L153.775 18.484ZM152.415 18.612L152.294 18.3987L152.29 18.4011L152.415 18.612ZM151.855 19.092L151.66 18.9432L151.61 19.0091V19.092H151.855ZM151.855 24.5V24.745H152.1V24.5H151.855ZM149.759 24.5H150.004V16.98H149.759H149.514V24.5H149.759ZM149.759 16.98L149.796 17.2222L151.684 16.9342L151.647 16.692L151.61 16.4498L149.722 16.7378L149.759 16.98ZM151.647 16.692L151.404 16.7274L151.516 17.4954L151.759 17.46L152.001 17.4246L151.889 16.6566L151.647 16.692ZM151.759 17.46L151.938 17.6269C152.21 17.3348 152.47 17.1469 152.715 17.0469L152.623 16.82L152.53 16.5931C152.2 16.7278 151.883 16.9665 151.579 17.2931L151.759 17.46ZM152.623 16.82L152.719 17.0452C152.988 16.9301 153.264 16.873 153.551 16.873V16.628V16.383C153.197 16.383 152.855 16.4539 152.526 16.5948L152.623 16.82ZM153.551 16.628V16.873C153.713 16.873 153.888 16.8921 154.076 16.9317L154.127 16.692L154.177 16.4523C153.96 16.4066 153.751 16.383 153.551 16.383V16.628ZM154.127 16.692L154.076 16.9317C154.268 16.9721 154.466 17.0278 154.67 17.0992L154.751 16.868L154.832 16.6368C154.609 16.5589 154.391 16.4973 154.177 16.4523L154.127 16.692ZM154.751 16.868L154.511 16.8191L154.143 18.6271L154.383 18.676L154.623 18.7249L154.991 16.9169L154.751 16.868ZM154.383 18.676L154.474 18.4485C154.25 18.3591 154.035 18.2908 153.828 18.2448L153.775 18.484L153.722 18.7232C153.899 18.7625 154.089 18.8223 154.292 18.9035L154.383 18.676ZM153.775 18.484L153.844 18.249C153.641 18.1893 153.436 18.159 153.231 18.159V18.404V18.649C153.388 18.649 153.546 18.672 153.706 18.719L153.775 18.484ZM153.231 18.404V18.159C152.892 18.159 152.579 18.238 152.294 18.3987L152.415 18.612L152.535 18.8253C152.742 18.7087 152.972 18.649 153.231 18.649V18.404ZM152.415 18.612L152.29 18.4011C152.033 18.5527 151.821 18.7325 151.66 18.9432L151.855 19.092L152.049 19.2408C152.166 19.0888 152.327 18.9486 152.539 18.8229L152.415 18.612ZM151.855 19.092H151.61V24.5H151.855H152.1V19.092H151.855ZM151.855 24.5V24.255H149.759V24.5V24.745H151.855V24.5ZM155.696 24.5H155.451V24.745H155.696V24.5ZM155.696 13.924L155.659 13.6818L155.451 13.7136V13.924H155.696ZM157.792 13.604H158.037V13.3188L157.755 13.3618L157.792 13.604ZM157.792 18.964H157.547V19.5144L157.956 19.146L157.792 18.964ZM160.208 16.788V16.543H160.114L160.044 16.606L160.208 16.788ZM162.72 16.788L162.884 16.9703L163.36 16.543H162.72V16.788ZM160.064 19.172L159.901 18.9897L159.753 19.1217L159.851 19.2934L160.064 19.172ZM163.104 24.5V24.745H163.526L163.317 24.3786L163.104 24.5ZM160.752 24.5L160.538 24.6188L160.608 24.745H160.752V24.5ZM158.544 20.516L158.759 20.3972L158.606 20.1224L158.377 20.3371L158.544 20.516ZM157.792 21.22L157.625 21.0411L157.547 21.1138V21.22H157.792ZM157.792 24.5V24.745H158.037V24.5H157.792ZM155.696 24.5H155.941V13.924H155.696H155.451V24.5H155.696ZM155.696 13.924L155.733 14.1662L157.829 13.8462L157.792 13.604L157.755 13.3618L155.659 13.6818L155.696 13.924ZM157.792 13.604H157.547V18.964H157.792H158.037V13.604H157.792ZM157.792 18.964L157.956 19.146L160.372 16.97L160.208 16.788L160.044 16.606L157.628 18.782L157.792 18.964ZM160.208 16.788V17.033H162.72V16.788V16.543H160.208V16.788ZM162.72 16.788L162.557 16.6057L159.901 18.9897L160.064 19.172L160.228 19.3543L162.884 16.9703L162.72 16.788ZM160.064 19.172L159.851 19.2934L162.891 24.6214L163.104 24.5L163.317 24.3786L160.277 19.0506L160.064 19.172ZM163.104 24.5V24.255H160.752V24.5V24.745H163.104V24.5ZM160.752 24.5L160.967 24.3812L158.759 20.3972L158.544 20.516L158.33 20.6348L160.538 24.6188L160.752 24.5ZM158.544 20.516L158.377 20.3371L157.625 21.0411L157.792 21.22L157.96 21.3989L158.712 20.6949L158.544 20.516ZM157.792 21.22H157.547V24.5H157.792H158.037V21.22H157.792ZM157.792 24.5V24.255H155.696V24.5V24.745H157.792V24.5ZM164.437 24.5H164.192V24.745H164.437V24.5ZM164.437 18.388H164.682V18.143H164.437V18.388ZM163.365 18.388H163.12V18.633H163.365V18.388ZM163.365 16.788V16.543H163.12V16.788H163.365ZM164.453 16.788V17.033H164.698V16.788H164.453ZM164.821 15.092L164.617 14.9561L164.615 14.9601L164.821 15.092ZM165.781 14.196L165.665 13.9805L165.662 13.9818L165.781 14.196ZM167.093 13.748L167.05 13.5068L167.093 13.748ZM169.813 13.684L169.836 13.44L169.813 13.684ZM171.109 13.86H171.354V13.657L171.155 13.6193L171.109 13.86ZM171.109 24.5V24.745H171.354V24.5H171.109ZM169.029 24.5H168.784V24.745H169.029V24.5ZM169.029 15.46H169.274V15.2525L169.07 15.2183L169.029 15.46ZM168.597 15.428L168.581 15.6725L168.589 15.673H168.597V15.428ZM166.997 15.684L167.113 15.9002L167.118 15.8972L166.997 15.684ZM166.517 16.788H166.272V17.033H166.517V16.788ZM168.245 16.788L168.487 16.8267L168.533 16.543H168.245V16.788ZM167.989 18.388V18.633H168.198L168.231 18.4267L167.989 18.388ZM166.533 18.388V18.143H166.288V18.388H166.533ZM166.533 24.5V24.745H166.778V24.5H166.533ZM164.437 24.5H164.682V18.388H164.437H164.192V24.5H164.437ZM164.437 18.388V18.143H163.365V18.388V18.633H164.437V18.388ZM163.365 18.388H163.61V16.788H163.365H163.12V18.388H163.365ZM163.365 16.788V17.033H164.453V16.788V16.543H163.365V16.788ZM164.453 16.788H164.698V16.548H164.453H164.208V16.788H164.453ZM164.453 16.548H164.698C164.698 15.9948 164.814 15.5587 165.028 15.2239L164.821 15.092L164.615 14.9601C164.338 15.3933 164.208 15.9279 164.208 16.548H164.453ZM164.821 15.092L165.025 15.2279C165.261 14.8747 165.552 14.6036 165.9 14.4102L165.781 14.196L165.662 13.9818C165.243 14.2151 164.894 14.5413 164.618 14.9561L164.821 15.092ZM165.781 14.196L165.898 14.4115C166.268 14.2117 166.68 14.0704 167.136 13.9892L167.093 13.748L167.05 13.5068C166.547 13.5963 166.084 13.7537 165.665 13.9805L165.781 14.196ZM167.093 13.748L167.136 13.9892C167.603 13.9062 168.058 13.865 168.501 13.865V13.62V13.375C168.027 13.375 167.544 13.4191 167.05 13.5068L167.093 13.748ZM168.501 13.62V13.865C168.898 13.865 169.328 13.8859 169.791 13.928L169.813 13.684L169.836 13.44C169.36 13.3968 168.915 13.375 168.501 13.375V13.62ZM169.813 13.684L169.791 13.928C170.254 13.9701 170.678 14.0277 171.064 14.1007L171.109 13.86L171.155 13.6193C170.751 13.5429 170.311 13.4833 169.836 13.44L169.813 13.684ZM171.109 13.86H170.864V24.5H171.109H171.354V13.86H171.109ZM171.109 24.5V24.255H169.029V24.5V24.745H171.109V24.5ZM169.029 24.5H169.274V15.46H169.029H168.784V24.5H169.029ZM169.029 15.46L169.07 15.2183C168.926 15.1943 168.768 15.183 168.597 15.183V15.428V15.673C168.747 15.673 168.877 15.683 168.989 15.7017L169.029 15.46ZM168.597 15.428L168.614 15.1835C168.45 15.1726 168.306 15.167 168.181 15.167V15.412V15.657C168.292 15.657 168.425 15.662 168.581 15.6725L168.597 15.428ZM168.181 15.412V15.167C167.681 15.167 167.242 15.2636 166.877 15.4708L166.997 15.684L167.118 15.8972C167.393 15.7417 167.743 15.657 168.181 15.657V15.412ZM166.997 15.684L166.882 15.4678C166.464 15.6906 166.272 16.0905 166.272 16.596H166.517H166.762C166.762 16.2269 166.89 16.0187 167.113 15.9002L166.997 15.684ZM166.517 16.596H166.272V16.788H166.517H166.762V16.596H166.517ZM166.517 16.788V17.033H168.245V16.788V16.543H166.517V16.788ZM168.245 16.788L168.003 16.7493L167.747 18.3493L167.989 18.388L168.231 18.4267L168.487 16.8267L168.245 16.788ZM167.989 18.388V18.143H166.533V18.388V18.633H167.989V18.388ZM166.533 18.388H166.288V24.5H166.533H166.778V18.388H166.533ZM166.533 24.5V24.255H164.437V24.5V24.745H166.533V24.5ZM174.892 24.324L174.785 24.5441L174.787 24.545L174.892 24.324ZM173.676 23.396L173.488 23.5529L173.491 23.5559L173.676 23.396ZM172.956 22.1L172.723 22.176L172.724 22.1775L172.956 22.1ZM172.956 19.14L173.189 19.2175L172.956 19.14ZM173.676 17.86L173.491 17.7001L173.49 17.7006L173.676 17.86ZM174.892 16.948L174.996 17.17L174.998 17.169L174.892 16.948ZM178.3 16.948L178.193 17.1682L178.199 17.1709L178.3 16.948ZM179.516 17.86L179.328 18.0169L179.333 18.0224L179.516 17.86ZM180.252 19.14L180.485 19.0625L180.252 19.14ZM180.252 22.1L180.485 22.1775L180.485 22.176L180.252 22.1ZM179.516 23.396L179.331 23.2361L179.328 23.2392L179.516 23.396ZM178.3 24.324L178.195 24.103L178.193 24.1039L178.3 24.324ZM174.876 21.54L174.639 21.6015L174.642 21.6121L174.876 21.54ZM175.228 22.276L175.027 22.4166L175.032 22.423L175.228 22.276ZM175.804 22.788L175.683 23.001L175.695 23.0071L175.804 22.788ZM177.388 22.788L177.502 23.0051L177.506 23.0031L177.388 22.788ZM177.964 22.276L177.768 22.1289L177.764 22.1355L177.964 22.276ZM178.316 21.54L178.081 21.4704L178.08 21.4763L178.316 21.54ZM178.316 19.7L178.079 19.7615L178.081 19.7696L178.316 19.7ZM177.964 18.964L177.763 19.1047L177.772 19.1158L177.964 18.964ZM177.388 18.468L177.267 18.681L177.279 18.6871L177.388 18.468ZM175.804 18.468L175.918 18.6851L175.922 18.6831L175.804 18.468ZM175.228 18.964L175.032 18.817L175.031 18.8187L175.228 18.964ZM174.876 19.7L174.641 19.6304L174.639 19.6385L174.876 19.7ZM176.604 24.676V24.431C175.983 24.431 175.45 24.3191 174.998 24.103L174.892 24.324L174.787 24.545C175.316 24.7983 175.924 24.921 176.604 24.921V24.676ZM174.892 24.324L175 24.1039C174.548 23.883 174.17 23.5936 173.862 23.2361L173.676 23.396L173.491 23.5559C173.844 23.9664 174.276 24.2957 174.785 24.5441L174.892 24.324ZM173.676 23.396L173.864 23.2392C173.564 22.8789 173.339 22.4739 173.189 22.0225L172.956 22.1L172.724 22.1775C172.893 22.6861 173.148 23.1451 173.488 23.5528L173.676 23.396ZM172.956 22.1L173.189 22.024C173.037 21.5572 172.961 21.0868 172.961 20.612H172.716H172.471C172.471 21.1399 172.556 21.6615 172.723 22.176L172.956 22.1ZM172.716 20.612H172.961C172.961 20.1372 173.037 19.6727 173.189 19.2175L172.956 19.14L172.724 19.0625C172.556 19.5673 172.471 20.0841 172.471 20.612H172.716ZM172.956 19.14L173.189 19.2175C173.339 18.7667 173.563 18.368 173.862 18.0194L173.676 17.86L173.49 17.7006C173.149 18.0987 172.894 18.5533 172.724 19.0625L172.956 19.14ZM173.676 17.86L173.862 18.0199C174.169 17.6634 174.546 17.38 174.996 17.17L174.892 16.948L174.789 16.726C174.279 16.964 173.845 17.2886 173.491 17.7001L173.676 17.86ZM174.892 16.948L174.998 17.169C175.45 16.9529 175.983 16.841 176.604 16.841V16.596V16.351C175.924 16.351 175.316 16.4737 174.787 16.727L174.892 16.948ZM176.604 16.596V16.841C177.226 16.841 177.753 16.953 178.193 17.1681L178.3 16.948L178.408 16.7279C177.888 16.4737 177.284 16.351 176.604 16.351V16.596ZM178.3 16.948L178.199 17.1709C178.658 17.3808 179.033 17.6632 179.328 18.0168L179.516 17.86L179.704 17.7032C179.359 17.2888 178.923 16.9631 178.402 16.7251L178.3 16.948ZM179.516 17.86L179.333 18.0224C179.641 18.3707 179.87 18.7683 180.02 19.2175L180.252 19.14L180.485 19.0625C180.314 18.5517 180.053 18.096 179.7 17.6976L179.516 17.86ZM180.252 19.14L180.02 19.2175C180.172 19.6727 180.247 20.1372 180.247 20.612H180.492H180.737C180.737 20.0841 180.653 19.5673 180.485 19.0625L180.252 19.14ZM180.492 20.612H180.247C180.247 21.0868 180.172 21.5572 180.019 22.024L180.252 22.1L180.485 22.176C180.653 21.6615 180.737 21.1399 180.737 20.612H180.492ZM180.252 22.1L180.02 22.0225C179.87 22.4722 179.64 22.8763 179.331 23.2361L179.516 23.396L179.702 23.5559C180.053 23.1477 180.315 22.6878 180.485 22.1775L180.252 22.1ZM179.516 23.396L179.328 23.2392C179.033 23.5938 178.656 23.8822 178.195 24.103L178.3 24.324L178.406 24.545C178.926 24.2965 179.36 23.9662 179.704 23.5528L179.516 23.396ZM178.3 24.324L178.193 24.1039C177.753 24.319 177.226 24.431 176.604 24.431V24.676V24.921C177.284 24.921 177.888 24.7983 178.408 24.5441L178.3 24.324ZM174.764 20.612H174.519C174.519 20.9611 174.559 21.2913 174.639 21.6015L174.876 21.54L175.113 21.4785C175.044 21.2127 175.009 20.9242 175.009 20.612H174.764ZM174.876 21.54L174.642 21.6121C174.734 21.911 174.862 22.18 175.028 22.4165L175.228 22.276L175.429 22.1355C175.296 21.9453 175.189 21.7236 175.11 21.4679L174.876 21.54ZM175.228 22.276L175.032 22.423C175.212 22.6622 175.429 22.8556 175.683 23.0007L175.804 22.788L175.926 22.5753C175.732 22.4644 175.565 22.3165 175.424 22.129L175.228 22.276ZM175.804 22.788L175.695 23.0071C175.968 23.1437 176.273 23.209 176.604 23.209V22.964V22.719C176.338 22.719 176.11 22.667 175.914 22.5689L175.804 22.788ZM176.604 22.964V23.209C176.935 23.209 177.237 23.1438 177.502 23.005L177.388 22.788L177.275 22.571C177.091 22.6669 176.87 22.719 176.604 22.719V22.964ZM177.388 22.788L177.506 23.0031C177.773 22.8575 177.993 22.6616 178.165 22.4165L177.964 22.276L177.764 22.1355C177.636 22.317 177.473 22.4625 177.271 22.5729L177.388 22.788ZM177.964 22.276L178.16 22.423C178.34 22.1829 178.471 21.9088 178.553 21.6037L178.316 21.54L178.08 21.4763C178.012 21.7259 177.908 21.9425 177.768 22.129L177.964 22.276ZM178.316 21.54L178.551 21.6096C178.644 21.2969 178.689 20.9639 178.689 20.612H178.444H178.199C178.199 20.9215 178.159 21.2071 178.081 21.4704L178.316 21.54ZM178.444 20.612H178.689C178.689 20.27 178.644 19.9424 178.551 19.6304L178.316 19.7L178.081 19.7696C178.16 20.0336 178.199 20.314 178.199 20.612H178.444ZM178.316 19.7L178.553 19.6385C178.472 19.3226 178.341 19.0453 178.157 18.8122L177.964 18.964L177.772 19.1158C177.908 19.288 178.012 19.5014 178.079 19.7615L178.316 19.7ZM177.964 18.964L178.165 18.8235C177.992 18.5765 177.769 18.3843 177.498 18.2489L177.388 18.468L177.279 18.6871C177.477 18.7864 177.638 18.9248 177.764 19.1045L177.964 18.964ZM177.388 18.468L177.51 18.2553C177.243 18.103 176.939 18.031 176.604 18.031V18.276V18.521C176.867 18.521 177.085 18.577 177.267 18.6807L177.388 18.468ZM176.604 18.276V18.031C176.269 18.031 175.962 18.1031 175.687 18.2529L175.804 18.468L175.922 18.6831C176.116 18.5769 176.342 18.521 176.604 18.521V18.276ZM175.804 18.468L175.691 18.251C175.433 18.3861 175.213 18.5761 175.032 18.817L175.228 18.964L175.424 19.111C175.564 18.9252 175.728 18.7845 175.918 18.685L175.804 18.468ZM175.228 18.964L175.031 18.8187C174.862 19.0481 174.733 19.3203 174.641 19.6304L174.876 19.7L175.111 19.7696C175.19 19.5037 175.296 19.2852 175.425 19.1093L175.228 18.964ZM174.876 19.7L174.639 19.6385C174.559 19.948 174.519 20.2728 174.519 20.612H174.764H175.009C175.009 20.3112 175.044 20.028 175.113 19.7615L174.876 19.7ZM183.486 24.5L183.256 24.5823L183.314 24.745H183.486V24.5ZM180.734 16.788V16.543H180.387L180.504 16.8703L180.734 16.788ZM182.91 16.788L183.145 16.7176L183.093 16.543H182.91V16.788ZM184.302 21.428L184.068 21.4984L184.292 22.2464L184.535 21.5043L184.302 21.428ZM185.822 16.788V16.543H185.645L185.59 16.7117L185.822 16.788ZM187.102 16.788L187.335 16.711L187.279 16.543H187.102V16.788ZM188.638 21.428L188.406 21.505L188.65 22.2423L188.873 21.4984L188.638 21.428ZM190.03 16.788V16.543H189.848L189.796 16.7176L190.03 16.788ZM192.206 16.788L192.437 16.8703L192.554 16.543H192.206V16.788ZM189.454 24.5V24.745H189.627L189.685 24.5823L189.454 24.5ZM187.934 24.5L187.702 24.5767L187.757 24.745H187.934V24.5ZM186.462 20.036L186.695 19.9593L186.461 19.2498L186.229 19.96L186.462 20.036ZM185.006 24.5V24.745H185.184L185.239 24.576L185.006 24.5ZM183.486 24.5L183.717 24.4177L180.965 16.7057L180.734 16.788L180.504 16.8703L183.256 24.5823L183.486 24.5ZM180.734 16.788V17.033H182.91V16.788V16.543H180.734V16.788ZM182.91 16.788L182.676 16.8584L184.068 21.4984L184.302 21.428L184.537 21.3576L183.145 16.7176L182.91 16.788ZM184.302 21.428L184.535 21.5043L186.055 16.8643L185.822 16.788L185.59 16.7117L184.07 21.3517L184.302 21.428ZM185.822 16.788V17.033H187.102V16.788V16.543H185.822V16.788ZM187.102 16.788L186.87 16.865L188.406 21.505L188.638 21.428L188.871 21.351L187.335 16.711L187.102 16.788ZM188.638 21.428L188.873 21.4984L190.265 16.8584L190.03 16.788L189.796 16.7176L188.404 21.3576L188.638 21.428ZM190.03 16.788V17.033H192.206V16.788V16.543H190.03V16.788ZM192.206 16.788L191.976 16.7057L189.224 24.4177L189.454 24.5L189.685 24.5823L192.437 16.8703L192.206 16.788ZM189.454 24.5V24.255H187.934V24.5V24.745H189.454V24.5ZM187.934 24.5L188.167 24.4233L186.695 19.9593L186.462 20.036L186.23 20.1127L187.702 24.5767L187.934 24.5ZM186.462 20.036L186.229 19.96L184.773 24.424L185.006 24.5L185.239 24.576L186.695 20.112L186.462 20.036ZM185.006 24.5V24.255H183.486V24.5V24.745H185.006V24.5Z" fill="#F3F3F3" mask="url(#path-5-outside-1_124_27115)"/>
<path d="M1333.84 18.5L1327 11.2167L1329.08 9L1338 18.5L1329.08 28L1327 25.7833L1333.84 18.5Z" fill="#1D1B20"/>
</svg>
