<svg width="98" height="20" viewBox="0 0 98 20" fill="none" xmlns="http://www.w3.org/2000/svg">
<path d="M27.57 17L24 7.662H25.232L27.934 14.774L30.58 7.662H31.77L28.228 17H27.57ZM33.2776 9.258C33.0816 9.258 32.9136 9.18333 32.7736 9.034C32.6336 8.87533 32.5636 8.684 32.5636 8.46C32.5636 8.24533 32.6336 8.05867 32.7736 7.9C32.9136 7.74133 33.0816 7.662 33.2776 7.662C33.4736 7.662 33.6416 7.74133 33.7816 7.9C33.9216 8.05867 33.9916 8.24533 33.9916 8.46C33.9916 8.684 33.9216 8.87533 33.7816 9.034C33.6416 9.18333 33.4736 9.258 33.2776 9.258ZM33.8096 17H32.7316V10.42L33.8096 10.224V17ZM36.4814 13.598C36.4814 14.4473 36.6728 15.11 37.0554 15.586C37.4381 16.0527 37.9934 16.286 38.7214 16.286C39.1414 16.286 39.4961 16.1833 39.7854 15.978C40.0748 15.7727 40.3081 15.5207 40.4854 15.222L41.1994 15.698C40.9568 16.118 40.6394 16.468 40.2474 16.748C39.8648 17.0187 39.3468 17.154 38.6934 17.154C38.1894 17.154 37.7368 17.0793 37.3354 16.93C36.9341 16.7713 36.5888 16.5473 36.2994 16.258C36.0194 15.9593 35.8001 15.5907 35.6414 15.152C35.4921 14.7133 35.4174 14.2047 35.4174 13.626C35.4174 13.094 35.4874 12.618 35.6274 12.198C35.7768 11.7687 35.9774 11.4047 36.2294 11.106C36.4908 10.798 36.8034 10.5647 37.1674 10.406C37.5408 10.238 37.9514 10.154 38.3994 10.154C38.8941 10.154 39.3234 10.238 39.6874 10.406C40.0608 10.574 40.3688 10.812 40.6114 11.12C40.8541 11.4187 41.0361 11.7827 41.1574 12.212C41.2788 12.632 41.3394 13.094 41.3394 13.598H36.4814ZM40.1214 12.744C40.1121 12.4547 40.0561 12.2027 39.9534 11.988C39.8508 11.764 39.7201 11.582 39.5614 11.442C39.4028 11.2927 39.2208 11.1853 39.0154 11.12C38.8101 11.0453 38.6048 11.008 38.3994 11.008C37.9514 11.008 37.5641 11.1433 37.2374 11.414C36.9201 11.6753 36.7008 12.1187 36.5794 12.744H40.1214ZM44.0948 17L41.8828 10.322H43.0448L44.5568 15.348L46.1948 10.322H46.8108L48.4628 15.348L49.9748 10.322H51.1368L48.9248 17H48.0848L46.5028 12.184L44.9348 17H44.0948ZM55.0754 17V7.662H57.9874C59.0607 7.662 59.8541 7.9 60.3674 8.376C60.8901 8.852 61.1514 9.55667 61.1514 10.49C61.1514 11.3953 60.8761 12.0813 60.3254 12.548C59.7841 13.0147 58.9907 13.248 57.9454 13.248H56.1954V17H55.0754ZM56.1954 12.268H58.0294C58.5987 12.268 59.0607 12.128 59.4154 11.848C59.7701 11.568 59.9474 11.106 59.9474 10.462C59.9474 9.818 59.7794 9.35133 59.4434 9.062C59.1074 8.77267 58.6314 8.628 58.0154 8.628H56.1954V12.268ZM68.2116 13.654C68.2116 14.0927 68.1462 14.522 68.0156 14.942C67.8849 15.362 67.6889 15.7353 67.4276 16.062C67.1756 16.3887 66.8536 16.6547 66.4616 16.86C66.0696 17.056 65.6169 17.154 65.1036 17.154C64.5902 17.154 64.1376 17.056 63.7456 16.86C63.3629 16.6547 63.0409 16.3887 62.7796 16.062C62.5182 15.726 62.3222 15.348 62.1916 14.928C62.0609 14.4987 61.9956 14.0647 61.9956 13.626C61.9956 13.1873 62.0562 12.7627 62.1776 12.352C62.3082 11.932 62.5042 11.5587 62.7656 11.232C63.0269 10.9053 63.3489 10.644 63.7316 10.448C64.1236 10.252 64.5809 10.154 65.1036 10.154C65.6169 10.154 66.0696 10.2567 66.4616 10.462C66.8536 10.658 67.1756 10.9193 67.4276 11.246C67.6889 11.5727 67.8849 11.946 68.0156 12.366C68.1462 12.786 68.2116 13.2153 68.2116 13.654ZM67.1616 13.64C67.1616 13.3133 67.1196 12.9913 67.0356 12.674C66.9516 12.3567 66.8209 12.0767 66.6436 11.834C66.4756 11.582 66.2609 11.3813 65.9996 11.232C65.7476 11.0827 65.4489 11.008 65.1036 11.008C64.7582 11.008 64.4549 11.0827 64.1936 11.232C63.9416 11.3813 63.7316 11.582 63.5636 11.834C63.3956 12.0767 63.2696 12.3567 63.1856 12.674C63.1016 12.982 63.0596 13.2993 63.0596 13.626C63.0596 13.962 63.1016 14.2887 63.1856 14.606C63.2696 14.9233 63.3956 15.208 63.5636 15.46C63.7409 15.7027 63.9556 15.9033 64.2076 16.062C64.4689 16.2113 64.7676 16.286 65.1036 16.286C65.4489 16.286 65.7476 16.2113 65.9996 16.062C66.2609 15.9033 66.4756 15.7027 66.6436 15.46C66.8209 15.208 66.9516 14.9233 67.0356 14.606C67.1196 14.2887 67.1616 13.9667 67.1616 13.64ZM69.8234 17V7.662L70.9014 7.48V17H69.8234ZM73.3772 9.258C73.1812 9.258 73.0132 9.18333 72.8732 9.034C72.7332 8.87533 72.6632 8.684 72.6632 8.46C72.6632 8.24533 72.7332 8.05867 72.8732 7.9C73.0132 7.74133 73.1812 7.662 73.3772 7.662C73.5732 7.662 73.7412 7.74133 73.8812 7.9C74.0212 8.05867 74.0912 8.24533 74.0912 8.46C74.0912 8.684 74.0212 8.87533 73.8812 9.034C73.7412 9.18333 73.5732 9.258 73.3772 9.258ZM73.9092 17H72.8312V10.42L73.9092 10.224V17ZM81.145 15.572C80.8837 16.1133 80.5244 16.5147 80.067 16.776C79.619 17.028 79.143 17.154 78.639 17.154C78.247 17.154 77.8597 17.084 77.477 16.944C77.1037 16.804 76.7724 16.5893 76.483 16.3C76.1937 16.0107 75.9604 15.6513 75.783 15.222C75.6057 14.7833 75.517 14.27 75.517 13.682C75.517 13.0567 75.6057 12.52 75.783 12.072C75.9604 11.624 76.1937 11.26 76.483 10.98C76.7724 10.6907 77.099 10.4807 77.463 10.35C77.827 10.2193 78.191 10.154 78.555 10.154C78.9284 10.154 79.255 10.21 79.535 10.322C79.8244 10.434 80.067 10.574 80.263 10.742C80.4684 10.91 80.6317 11.0873 80.753 11.274C80.8837 11.4607 80.977 11.6287 81.033 11.778L80.235 12.282C80.039 11.834 79.7917 11.512 79.493 11.316C79.1944 11.12 78.8817 11.022 78.555 11.022C78.303 11.022 78.0604 11.0827 77.827 11.204C77.5937 11.316 77.3837 11.484 77.197 11.708C77.0104 11.932 76.861 12.2073 76.749 12.534C76.637 12.8607 76.581 13.234 76.581 13.654C76.581 14.074 76.637 14.4473 76.749 14.774C76.861 15.1007 77.0104 15.376 77.197 15.6C77.393 15.824 77.617 15.9967 77.869 16.118C78.1304 16.23 78.4057 16.286 78.695 16.286C79.0217 16.286 79.3344 16.1927 79.633 16.006C79.941 15.8193 80.193 15.516 80.389 15.096L81.145 15.572ZM83.0159 9.258C82.8199 9.258 82.6519 9.18333 82.5119 9.034C82.3719 8.87533 82.3019 8.684 82.3019 8.46C82.3019 8.24533 82.3719 8.05867 82.5119 7.9C82.6519 7.74133 82.8199 7.662 83.0159 7.662C83.2119 7.662 83.3799 7.74133 83.5199 7.9C83.6599 8.05867 83.7299 8.24533 83.7299 8.46C83.7299 8.684 83.6599 8.87533 83.5199 9.034C83.3799 9.18333 83.2119 9.258 83.0159 9.258ZM83.5479 17H82.4699V10.42L83.5479 10.224V17ZM86.2197 13.598C86.2197 14.4473 86.4111 15.11 86.7937 15.586C87.1764 16.0527 87.7317 16.286 88.4597 16.286C88.8797 16.286 89.2344 16.1833 89.5237 15.978C89.8131 15.7727 90.0464 15.5207 90.2237 15.222L90.9377 15.698C90.6951 16.118 90.3777 16.468 89.9857 16.748C89.6031 17.0187 89.0851 17.154 88.4317 17.154C87.9277 17.154 87.4751 17.0793 87.0737 16.93C86.6724 16.7713 86.3271 16.5473 86.0377 16.258C85.7577 15.9593 85.5384 15.5907 85.3797 15.152C85.2304 14.7133 85.1557 14.2047 85.1557 13.626C85.1557 13.094 85.2257 12.618 85.3657 12.198C85.5151 11.7687 85.7157 11.4047 85.9677 11.106C86.2291 10.798 86.5417 10.5647 86.9057 10.406C87.2791 10.238 87.6897 10.154 88.1377 10.154C88.6324 10.154 89.0617 10.238 89.4257 10.406C89.7991 10.574 90.1071 10.812 90.3497 11.12C90.5924 11.4187 90.7744 11.7827 90.8957 12.212C91.0171 12.632 91.0777 13.094 91.0777 13.598H86.2197ZM89.8597 12.744C89.8504 12.4547 89.7944 12.2027 89.6917 11.988C89.5891 11.764 89.4584 11.582 89.2997 11.442C89.1411 11.2927 88.9591 11.1853 88.7537 11.12C88.5484 11.0453 88.3431 11.008 88.1377 11.008C87.6897 11.008 87.3024 11.1433 86.9757 11.414C86.6584 11.6753 86.4391 12.1187 86.3177 12.744H89.8597ZM92.9511 15.348C93.1098 15.6467 93.3104 15.88 93.5531 16.048C93.8051 16.2067 94.1411 16.286 94.5611 16.286C95.4758 16.286 95.9331 15.9593 95.9331 15.306C95.9331 15.11 95.9004 14.9467 95.8351 14.816C95.7791 14.676 95.6811 14.55 95.5411 14.438C95.4104 14.326 95.2378 14.2233 95.0231 14.13C94.8084 14.0367 94.5471 13.934 94.2391 13.822C93.9031 13.71 93.6184 13.5933 93.3851 13.472C93.1518 13.3413 92.9604 13.2013 92.8111 13.052C92.6618 12.9027 92.5498 12.7347 92.4751 12.548C92.4098 12.352 92.3771 12.1327 92.3771 11.89C92.3771 11.3487 92.5731 10.924 92.9651 10.616C93.3664 10.308 93.8938 10.154 94.5471 10.154C95.0884 10.154 95.5411 10.2473 95.9051 10.434C96.2691 10.6113 96.5771 10.868 96.8291 11.204L96.0731 11.806C95.8864 11.582 95.6671 11.3953 95.4151 11.246C95.1631 11.0967 94.8784 11.022 94.5611 11.022C94.1691 11.022 93.8751 11.1013 93.6791 11.26C93.4924 11.4093 93.3991 11.596 93.3991 11.82C93.3991 11.96 93.4224 12.086 93.4691 12.198C93.5251 12.3007 93.6184 12.3987 93.7491 12.492C93.8798 12.576 94.0478 12.6647 94.2531 12.758C94.4678 12.842 94.7384 12.94 95.0651 13.052C95.6811 13.2667 96.1478 13.5373 96.4651 13.864C96.7824 14.1907 96.9411 14.6247 96.9411 15.166C96.9411 15.4833 96.8804 15.768 96.7591 16.02C96.6378 16.2627 96.4698 16.468 96.2551 16.636C96.0498 16.804 95.8024 16.93 95.5131 17.014C95.2238 17.1073 94.9064 17.154 94.5611 17.154C93.8984 17.154 93.3804 17.0327 93.0071 16.79C92.6338 16.5473 92.3351 16.2393 92.1111 15.866L92.9511 15.348Z" fill="#606060"/>
<mask id="mask0_4771_37943" style="mask-type:luminance" maskUnits="userSpaceOnUse" x="0" y="0" width="20" height="20">
<path d="M0 0H20V20H0V0Z" fill="white"/>
</mask>
<g mask="url(#mask0_4771_37943)">
<path d="M16.875 8.65039V16.2578C16.875 16.9481 16.6309 17.5374 16.1428 18.0256C15.6546 18.5137 15.0653 18.7578 14.375 18.7578H5.625C4.93464 18.7578 4.34539 18.5137 3.85723 18.0256C3.36908 17.5374 3.125 16.9481 3.125 16.2578V3.75781C3.125 3.06746 3.36908 2.4782 3.85723 1.99005C4.34539 1.50189 4.93464 1.25781 5.625 1.25781H9.48242C9.73104 1.25785 9.97017 1.30543 10.1998 1.40055C10.4294 1.49567 10.6321 1.6311 10.8079 1.80684L16.3259 7.32485C16.5017 7.50066 16.6372 7.70338 16.7323 7.93301C16.8274 8.16265 16.8749 8.40184 16.875 8.65039ZM15.625 8.65049C15.625 8.56763 15.6091 8.48793 15.5774 8.41139C15.5457 8.33485 15.5006 8.2673 15.442 8.20874L9.92412 2.69082C9.86553 2.63224 9.79797 2.5871 9.72142 2.55539C9.64487 2.52369 9.56521 2.50783 9.48242 2.50781H5.625C5.27982 2.50781 4.98519 2.62985 4.74112 2.87393C4.49704 3.118 4.375 3.41263 4.375 3.75781V16.2578C4.375 16.603 4.49704 16.8976 4.74112 17.1417C4.98519 17.3858 5.27982 17.5078 5.625 17.5078H14.375C14.7202 17.5078 15.0148 17.3858 15.2589 17.1417C15.503 16.8976 15.625 16.603 15.625 16.2578V8.65049Z" fill="#606060"/>
<path fill-rule="evenodd" clip-rule="evenodd" d="M10 1.57031C9.65482 1.57031 9.375 1.85014 9.375 2.19531V6.88281C9.375 7.40058 9.55806 7.84252 9.92417 8.20864C10.2903 8.57476 10.7322 8.75781 11.25 8.75781H15.9375C16.2827 8.75781 16.5625 8.47798 16.5625 8.13281C16.5625 7.78764 16.2827 7.50781 15.9375 7.50781H11.25C11.0774 7.50781 10.9301 7.44679 10.8081 7.32475C10.686 7.20271 10.625 7.0554 10.625 6.88281V2.19531C10.625 1.85014 10.3452 1.57031 10 1.57031ZM6.25 11.2578C6.25 11.603 6.52983 11.8828 6.875 11.8828H13.125C13.4702 11.8828 13.75 11.603 13.75 11.2578C13.75 10.9126 13.4702 10.6328 13.125 10.6328H6.875C6.52983 10.6328 6.25 10.9126 6.25 11.2578ZM6.25 14.3828C6.25 14.728 6.52983 15.0078 6.875 15.0078H13.125C13.4702 15.0078 13.75 14.728 13.75 14.3828C13.75 14.0376 13.4702 13.7578 13.125 13.7578H6.875C6.52983 13.7578 6.25 14.0376 6.25 14.3828Z" fill="#606060"/>
</g>
</svg>
